<svg width="36" height="36" viewBox="0 0 36 36" fill="none" xmlns="http://www.w3.org/2000/svg">
<path fill-rule="evenodd" clip-rule="evenodd" d="M9.75566 7.13538C9.11876 7.13538 8.56279 7.38934 8.22468 7.80918C5.89417 10.703 4.5 14.3798 4.5 18.3854C4.5 18.9967 4.53246 19.6001 4.59569 20.194C4.68716 21.0531 5.48698 21.7604 6.55841 21.7604H14.55C15.1713 21.7604 15.675 22.2641 15.675 22.8854C15.675 23.5067 15.1713 24.0104 14.55 24.0104H13.5811C13.6172 24.4327 13.5495 24.8748 13.351 25.2921C12.7256 26.6069 12.375 28.0786 12.375 29.6354C12.375 30.878 13.3824 31.8854 14.625 31.8854L14.625 30.9353C14.625 29.9335 14.8162 28.9408 15.1882 28.0106C15.7717 26.552 16.9449 25.5214 18.1829 24.8621C19.7143 24.0465 21.0548 22.918 22.1186 21.5616C22.9973 20.4413 24.3391 19.5588 25.9199 19.5123C26.6137 17.9676 27 16.2541 27 14.4479C27 12.6423 26.614 10.9295 25.9208 9.38538H24.7204C23.874 9.38538 23.0331 9.24892 22.2301 8.98126L17.5584 7.42403C16.9848 7.23285 16.3842 7.13538 15.7796 7.13538L9.75566 7.13538ZM25.7385 7.13538L24.7204 7.13538C24.1158 7.13538 23.5152 7.03791 22.9416 6.84672L18.2699 5.2895C17.4669 5.02183 16.626 4.88538 15.7796 4.88538L9.75566 4.88538C8.53866 4.88538 7.29701 5.37387 6.47231 6.39791C3.83147 9.67705 2.25 13.8481 2.25 18.3854C2.25 19.0765 2.2867 19.7594 2.35834 20.4322C2.59294 22.6357 4.54993 24.0104 6.55841 24.0104H11.25C11.2494 24.01 11.2501 24.0105 11.25 24.0104C11.2569 24.0149 11.2794 24.0329 11.3014 24.0731C11.3513 24.1644 11.3483 24.2642 11.3191 24.3256C10.5531 25.936 10.125 27.7372 10.125 29.6354C10.125 32.1207 12.1397 34.1354 14.625 34.1354C15.8676 34.1354 16.875 33.128 16.875 31.8854V30.9353C16.875 30.2197 17.0115 29.5107 17.2773 28.8462C17.6055 28.0259 18.312 27.3425 19.2405 26.848C21.0506 25.884 22.6334 24.5512 23.8891 22.9501C24.19 22.5664 24.5432 22.2646 24.9208 22.0609C24.9789 23.0592 25.7138 24.0104 26.9218 24.0104H28.501C30.1348 24.0104 31.7711 23.1151 32.4244 21.4572C33.2804 19.2852 33.75 16.92 33.75 14.4479C33.75 12.5053 33.46 10.6284 32.9202 8.85913C32.3635 7.03462 30.6291 6.01038 28.8857 6.01038H27.524C26.6734 6.01038 26.0487 6.49898 25.7385 7.13538ZM27.8802 8.26038C28.7593 10.1408 29.25 12.2385 29.25 14.4479C29.25 16.8618 28.6643 19.1423 27.6262 21.1517C27.5199 21.3575 27.4089 21.5605 27.2932 21.7604H28.501C29.3632 21.7604 30.0693 21.2966 30.3311 20.6322C31.0852 18.7187 31.5 16.6331 31.5 14.4479C31.5 12.7302 31.2437 11.0745 30.7681 9.51575C30.5468 8.79019 29.8084 8.26038 28.8857 8.26038H27.8802Z" fill="#EEEEEE"/>
</svg>
