<svg width="36" height="36" viewBox="0 0 36 36" fill="none" xmlns="http://www.w3.org/2000/svg">
<path d="M34.395 16.71C34.185 14.67 32.37 13.125 30.195 13.125H25.425C25.365 12.96 25.395 12.855 25.425 12.81C26.22 11.145 26.625 9.36 26.625 7.5C26.625 5.025 24.6 3 22.125 3C20.88 3 19.875 4.005 19.875 5.25V6.195C19.875 6.915 19.74 7.62 19.47 8.28C19.065 9.285 18.18 9.915 17.505 10.275C15.69 11.235 14.13 12.555 12.855 14.175C12.465 14.67 12 15 11.505 15.195C11.13 14.595 10.515 14.235 9.825 14.235H8.25C6.48 14.235 4.935 15.24 4.32 16.785C3.435 19.02 3 21.375 3 23.79C3 25.695 3.285 27.57 3.825 29.385C4.35 31.095 5.97 32.235 7.86 32.235H9.225C9.915 32.235 10.545 31.875 10.92 31.29C11.175 30.885 11.25 30.435 11.205 29.985H12.03C12.63 29.985 13.23 30.075 13.815 30.27L18.495 31.83C19.305 32.1 20.13 32.235 20.985 32.235H27.015C28.335 32.235 29.52 31.68 30.3 30.72C33.03 27.345 34.53 23.085 34.53 18.735C34.53 18.06 34.5 17.37 34.425 16.695L34.395 16.71ZM7.86 30C6.96 30 6.21 29.49 5.97 28.74C5.49 27.15 5.235 25.485 5.235 23.805C5.235 21.675 5.625 19.59 6.405 17.625C6.675 16.935 7.395 16.5 8.235 16.5H9.435C8.16 18.72 7.485 21.24 7.485 23.82C7.485 25.71 7.845 27.555 8.55 29.31C8.55 29.31 8.55 29.31 8.55 29.325C8.64 29.55 8.745 29.79 8.85 30.015H7.845L7.86 30ZM28.53 29.325C28.185 29.76 27.63 30 27 30H20.97C20.37 30 19.77 29.91 19.185 29.715L14.505 28.155C13.695 27.885 12.87 27.75 12.015 27.75H10.395C9.975 26.49 9.735 25.17 9.735 23.82C9.735 21.6 10.335 19.44 11.46 17.535C12.66 17.325 13.785 16.65 14.625 15.585C15.69 14.235 17.055 13.095 18.555 12.285C19.995 11.52 21.03 10.425 21.555 9.135C21.93 8.205 22.125 7.215 22.125 6.21V5.265C23.37 5.265 24.375 6.27 24.375 7.515C24.375 9.03 24.045 10.5 23.4 11.865C23.205 12.27 23.145 12.705 23.175 13.14H22.125C21.51 13.14 21 13.65 21 14.265C21 14.88 21.51 15.39 22.125 15.39H30.195C31.215 15.39 32.07 16.065 32.16 16.95C32.22 17.55 32.25 18.165 32.25 18.765C32.25 22.665 30.96 26.31 28.53 29.34V29.325Z" fill="#EEEEEE"/>
</svg>
