<svg width="120" height="120" viewBox="0 0 120 120" fill="none" xmlns="http://www.w3.org/2000/svg">
<g clip-path="url(#clip0_11_22374)">
<path d="M60 120C93.1371 120 120 93.1371 120 60C120 26.8629 93.1371 0 60 0C26.8629 0 0 26.8629 0 60C0 93.1371 26.8629 120 60 120Z" fill="white"/>
<path d="M60 0C36.2124 0 15.6586 13.8434 5.95361 33.9131H114.046C104.341 13.8434 83.7874 0 60 0Z" fill="#FF9933"/>
<path d="M60 120C83.7874 120 104.341 106.157 114.046 86.0869H5.95361C15.6586 106.157 36.2124 120 60 120Z" fill="#128807"/>
<path d="M60.0353 80.2971C71.4066 80.2971 80.625 71.0788 80.625 59.7074C80.625 48.3361 71.4066 39.1178 60.0353 39.1178C48.6639 39.1178 39.4456 48.3361 39.4456 59.7074C39.4456 71.0788 48.6639 80.2971 60.0353 80.2971Z" fill="#000088"/>
<path d="M60.0353 77.7233C69.9852 77.7233 78.0513 69.6573 78.0513 59.7074C78.0513 49.7574 69.9852 41.6914 60.0353 41.6914C50.0854 41.6914 42.0193 49.7574 42.0193 59.7074C42.0193 69.6573 50.0854 77.7233 60.0353 77.7233Z" fill="white"/>
<path d="M60.0353 63.3106C62.0253 63.3106 63.6385 61.6974 63.6385 59.7074C63.6385 57.7174 62.0253 56.1042 60.0353 56.1042C58.0453 56.1042 56.4321 57.7174 56.4321 59.7074C56.4321 61.6974 58.0453 63.3106 60.0353 63.3106Z" fill="#000088"/>
<path d="M77.7798 62.9527C78.2732 63.0176 78.7259 62.6703 78.7908 62.1769C78.8558 61.6835 78.5084 61.2308 78.015 61.1659C77.5216 61.1009 77.069 61.4482 77.004 61.9416C76.9391 62.4351 77.2864 62.8877 77.7798 62.9527Z" fill="#000088"/>
<path d="M60.0353 77.7235L60.653 66.914L60.0353 61.7665L59.4176 66.914L60.0353 77.7235Z" fill="#000088"/>
<path d="M76.3352 67.4347C76.795 67.6251 77.3221 67.4068 77.5126 66.947C77.703 66.4872 77.4847 65.9601 77.0249 65.7697C76.5651 65.5792 76.038 65.7975 75.8475 66.2573C75.6571 66.7171 75.8754 67.2442 76.3352 67.4347Z" fill="#000088"/>
<path d="M55.3724 77.1094L58.7668 66.828L59.5024 61.6962L57.5735 66.5083L55.3724 77.1094Z" fill="#000088"/>
<path d="M73.7798 71.3901C74.1747 71.693 74.7403 71.6186 75.0433 71.2238C75.3462 70.8289 75.2718 70.2633 74.8769 69.9603C74.4821 69.6573 73.9165 69.7318 73.6135 70.1266C73.3105 70.5215 73.385 71.0871 73.7798 71.3901Z" fill="#000088"/>
<path d="M51.0273 75.3097L56.967 66.2572L59.0058 61.4905L55.8972 65.6395L51.0273 75.3097Z" fill="#000088"/>
<path d="M70.2878 74.5494C70.5907 74.9442 71.1564 75.0187 71.5512 74.7157C71.9461 74.4128 72.0205 73.8471 71.7176 73.4523C71.4146 73.0574 70.8489 72.983 70.4541 73.2859C70.0593 73.5889 69.9848 74.1545 70.2878 74.5494Z" fill="#000088"/>
<path d="M47.2961 72.4465L55.3764 65.2398L58.5794 61.1632L54.5029 64.3662L47.2961 72.4465Z" fill="#000088"/>
<path d="M66.0971 76.6974C66.2876 77.1572 66.8147 77.3755 67.2745 77.1851C67.7342 76.9946 67.9526 76.4675 67.7621 76.0077C67.5717 75.5479 67.0446 75.3296 66.5848 75.52C66.125 75.7105 65.9067 76.2376 66.0971 76.6974Z" fill="#000088"/>
<path d="M44.4329 68.7157L54.1031 63.8458L58.252 60.7372L53.4854 62.7759L44.4329 68.7157Z" fill="#000088"/>
<path d="M61.4932 77.6874C61.5582 78.1808 62.0108 78.5281 62.5043 78.4632C62.9977 78.3982 63.345 77.9455 63.28 77.4521C63.2151 76.9587 62.7624 76.6114 62.269 76.6764C61.7756 76.7413 61.4283 77.194 61.4932 77.6874Z" fill="#000088"/>
<path d="M42.6331 64.3705L53.2342 62.1694L58.0463 60.2405L52.9145 60.9761L42.6331 64.3705Z" fill="#000088"/>
<path d="M56.7901 77.452C56.7251 77.9454 57.0724 78.3981 57.5658 78.463C58.0592 78.528 58.5119 78.1807 58.5768 77.6873C58.6418 77.1939 58.2945 76.7412 57.8011 76.6763C57.3077 76.6113 56.855 76.9586 56.7901 77.452Z" fill="#000088"/>
<path d="M42.0192 59.7076L52.8288 60.3253L57.9762 59.7076L52.8288 59.0899L42.0192 59.7076Z" fill="#000088"/>
<path d="M52.3081 76.0075C52.1176 76.4672 52.336 76.9944 52.7957 77.1848C53.2555 77.3753 53.7826 77.1569 53.9731 76.6971C54.1635 76.2374 53.9452 75.7102 53.4854 75.5198C53.0256 75.3293 52.4985 75.5477 52.3081 76.0075Z" fill="#000088"/>
<path d="M42.6333 55.0446L52.9147 58.439L58.0466 59.1746L53.2344 57.2457L42.6333 55.0446Z" fill="#000088"/>
<path d="M48.3526 73.4518C48.0496 73.8466 48.1241 74.4123 48.5189 74.7152C48.9137 75.0182 49.4794 74.9437 49.7824 74.5489C50.0853 74.1541 50.0109 73.5884 49.616 73.2855C49.2212 72.9825 48.6555 73.057 48.3526 73.4518Z" fill="#000088"/>
<path d="M44.433 50.6993L53.4856 56.639L58.2522 58.6778L54.1032 55.5692L44.433 50.6993Z" fill="#000088"/>
<path d="M45.1933 69.9597C44.7985 70.2626 44.724 70.8283 45.027 71.2231C45.3299 71.618 45.8956 71.6924 46.2904 71.3895C46.6852 71.0865 46.7597 70.5208 46.4568 70.126C46.1538 69.7312 45.5881 69.6567 45.1933 69.9597Z" fill="#000088"/>
<path d="M47.2961 46.9681L54.5029 55.0484L58.5794 58.2514L55.3764 54.1748L47.2961 46.9681Z" fill="#000088"/>
<path d="M43.0455 65.769C42.5857 65.9595 42.3674 66.4866 42.5578 66.9464C42.7483 67.4062 43.2754 67.6245 43.7352 67.4341C44.195 67.2436 44.4133 66.7165 44.2229 66.2567C44.0324 65.7969 43.5053 65.5786 43.0455 65.769Z" fill="#000088"/>
<path d="M51.0273 44.105L55.8972 53.7752L59.0058 57.9242L56.9671 53.1575L51.0273 44.105Z" fill="#000088"/>
<path d="M42.0555 61.1651C41.5621 61.2301 41.2148 61.6827 41.2797 62.1761C41.3447 62.6695 41.7973 63.0169 42.2907 62.9519C42.7842 62.8869 43.1315 62.4343 43.0665 61.9409C43.0016 61.4475 42.5489 61.1002 42.0555 61.1651Z" fill="#000088"/>
<path d="M55.3724 42.3049L57.5735 52.906L59.5024 57.7182L58.7667 52.5863L55.3724 42.3049Z" fill="#000088"/>
<path d="M42.2908 56.4622C41.7974 56.3973 41.3448 56.7446 41.2798 57.238C41.2148 57.7314 41.5622 58.184 42.0556 58.249C42.549 58.314 43.0016 57.9666 43.0666 57.4732C43.1316 56.9798 42.7842 56.5272 42.2908 56.4622Z" fill="#000088"/>
<path d="M60.0353 41.6913L59.4176 52.5009L60.0353 57.6483L60.653 52.5009L60.0353 41.6913Z" fill="#000088"/>
<path d="M43.7354 51.9802C43.2756 51.7898 42.7485 52.0081 42.558 52.4679C42.3676 52.9277 42.5859 53.4548 43.0457 53.6452C43.5055 53.8357 44.0326 53.6173 44.2231 53.1576C44.4135 52.6978 44.1952 52.1707 43.7354 51.9802Z" fill="#000088"/>
<path d="M64.6982 42.3054L61.3038 52.5868L60.5682 57.7187L62.4971 52.9066L64.6982 42.3054Z" fill="#000088"/>
<path d="M46.2908 48.0247C45.896 47.7217 45.3303 47.7962 45.0273 48.191C44.7244 48.5859 44.7989 49.1515 45.1937 49.4545C45.5885 49.7574 46.1542 49.683 46.4571 49.2881C46.7601 48.8933 46.6856 48.3277 46.2908 48.0247Z" fill="#000088"/>
<path d="M69.0433 44.1052L63.1036 53.1577L61.0648 57.9244L64.1734 53.7754L69.0433 44.1052Z" fill="#000088"/>
<path d="M49.7828 44.8655C49.4799 44.4707 48.9142 44.3962 48.5194 44.6992C48.1246 45.0021 48.0501 45.5678 48.3531 45.9626C48.656 46.3575 49.2217 46.4319 49.6165 46.129C50.0113 45.826 50.0858 45.2603 49.7828 44.8655Z" fill="#000088"/>
<path d="M72.7745 46.9683L64.6942 54.175L61.4912 58.2516L65.5678 55.0486L72.7745 46.9683Z" fill="#000088"/>
<path d="M53.9736 42.7175C53.7831 42.2578 53.256 42.0394 52.7962 42.2299C52.3364 42.4203 52.1181 42.9474 52.3085 43.4072C52.499 43.867 53.0261 44.0853 53.4859 43.8949C53.9457 43.7044 54.164 43.1773 53.9736 42.7175Z" fill="#000088"/>
<path d="M75.6378 50.6993L65.9675 55.5691L61.8186 58.6778L66.5852 56.639L75.6378 50.6993Z" fill="#000088"/>
<path d="M58.5774 41.7275C58.5125 41.2341 58.0598 40.8868 57.5664 40.9518C57.073 41.0167 56.7257 41.4694 56.7906 41.9628C56.8556 42.4562 57.3083 42.8035 57.8017 42.7386C58.2951 42.6736 58.6424 42.2209 58.5774 41.7275Z" fill="#000088"/>
<path d="M77.4376 55.0444L66.8365 57.2455L62.0243 59.1744L67.1562 58.4388L77.4376 55.0444Z" fill="#000088"/>
<path d="M63.2806 41.9629C63.3455 41.4695 62.9982 41.0168 62.5048 40.9519C62.0114 40.8869 61.5587 41.2342 61.4938 41.7277C61.4288 42.2211 61.7761 42.6737 62.2696 42.7387C62.763 42.8036 63.2156 42.4563 63.2806 41.9629Z" fill="#000088"/>
<path d="M78.0512 59.7073L67.2417 59.0896L62.0942 59.7073L67.2417 60.325L78.0512 59.7073Z" fill="#000088"/>
<path d="M67.7626 43.4075C67.9531 42.9477 67.7347 42.4206 67.2749 42.2301C66.8152 42.0397 66.288 42.258 66.0976 42.7178C65.9071 43.1776 66.1255 43.7047 66.5853 43.8951C67.045 44.0856 67.5722 43.8672 67.7626 43.4075Z" fill="#000088"/>
<path d="M77.4376 64.3703L67.1563 60.976L62.0244 60.2404L66.8365 62.1693L77.4376 64.3703Z" fill="#000088"/>
<path d="M71.7182 45.9629C72.0211 45.5681 71.9466 45.0024 71.5518 44.6995C71.157 44.3965 70.5913 44.471 70.2884 44.8658C69.9854 45.2606 70.0599 45.8263 70.4547 46.1293C70.8495 46.4322 71.4152 46.3577 71.7182 45.9629Z" fill="#000088"/>
<path d="M75.6378 68.7155L66.5852 62.7758L61.8186 60.737L65.9676 63.8457L75.6378 68.7155Z" fill="#000088"/>
<path d="M74.8774 49.4549C75.2722 49.152 75.3467 48.5863 75.0437 48.1915C74.7408 47.7967 74.1751 47.7222 73.7803 48.0252C73.3854 48.3281 73.311 48.8938 73.6139 49.2886C73.9169 49.6834 74.4826 49.7579 74.8774 49.4549Z" fill="#000088"/>
<path d="M72.7747 72.4468L65.5679 64.3665L61.4914 61.1635L64.6944 65.2401L72.7747 72.4468Z" fill="#000088"/>
<path d="M77.0252 53.6458C77.485 53.4554 77.7033 52.9282 77.5129 52.4685C77.3224 52.0087 76.7953 51.7903 76.3355 51.9808C75.8757 52.1712 75.6574 52.6984 75.8478 53.1581C76.0383 53.6179 76.5654 53.8363 77.0252 53.6458Z" fill="#000088"/>
<path d="M69.0433 75.3098L64.1735 65.6396L61.0648 61.4906L63.1036 66.2572L69.0433 75.3098Z" fill="#000088"/>
<path d="M78.0151 58.2495C78.5085 58.1846 78.8558 57.7319 78.7909 57.2385C78.7259 56.7451 78.2733 56.3978 77.7799 56.4628C77.2865 56.5277 76.9391 56.9804 77.0041 57.4738C77.0691 57.9672 77.5217 58.3145 78.0151 58.2495Z" fill="#000088"/>
<path d="M64.6984 77.1097L62.4973 66.5086L60.5684 61.6965L61.304 66.8283L64.6984 77.1097Z" fill="#000088"/>
</g>
<defs>
<clipPath id="clip0_11_22374">
<rect width="120" height="120" fill="white"/>
</clipPath>
</defs>
</svg>
