<svg width="24" height="24" viewBox="0 0 24 24" fill="none" xmlns="http://www.w3.org/2000/svg">
<path fill-rule="evenodd" clip-rule="evenodd" d="M3 6.76855C3 6.35434 3.33579 6.01855 3.75 6.01855H20.25C20.6642 6.01855 21 6.35434 21 6.76855C21 7.18277 20.6642 7.51855 20.25 7.51855H3.75C3.33579 7.51855 3 7.18277 3 6.76855ZM3 12.0186C3 11.6043 3.33579 11.2686 3.75 11.2686H20.25C20.6642 11.2686 21 11.6043 21 12.0186C21 12.4328 20.6642 12.7686 20.25 12.7686H3.75C3.33579 12.7686 3 12.4328 3 12.0186ZM3 17.2686C3 16.8543 3.33579 16.5186 3.75 16.5186H20.25C20.6642 16.5186 21 16.8543 21 17.2686C21 17.6828 20.6642 18.0186 20.25 18.0186H3.75C3.33579 18.0186 3 17.6828 3 17.2686Z" fill="#263238"/>
</svg>
