<svg width="167" height="135" viewBox="0 0 167 135" fill="none" xmlns="http://www.w3.org/2000/svg">
<path d="M61.1417 0.53911C71.2586 0.400204 87.2328 0.459735 91.9919 5.41073C91.8927 5.85391 91.7935 6.29708 91.6976 6.74026C89.0419 5.8043 86.3828 4.87164 83.7271 3.93568C80.6777 3.49251 77.6251 3.04933 74.5758 2.60616C72.4096 2.50694 70.2466 2.40772 68.0803 2.31181C66.8004 2.60616 57.8674 3.75048 56.5875 4.04482C54.2162 3.61157 56.7132 1.13111 56.5677 1.42546C56.6173 1.32624 56.6669 1.22702 56.7165 1.13111C58.1916 0.932676 59.6699 0.737546 61.145 0.53911H61.1417Z" fill="url(#paint0_linear_164_578)"/>
<path opacity="0.08" d="M167 121C167 113.82 129.617 108 83.5 108C37.3825 108 0 113.82 0 121C0 128.18 37.3825 134 83.5 134C129.617 134 167 128.18 167 121Z" fill="url(#paint1_radial_164_578)"/>
<path d="M67.7165 118.599C101.348 118.599 128.61 92.4319 128.61 60.1562C128.61 27.8804 101.348 1.71326 67.7165 1.71326C34.0847 1.71326 6.82285 27.8804 6.82285 60.1562C6.82285 92.4319 34.0847 118.599 67.7165 118.599Z" fill="url(#paint2_radial_164_578)"/>
<path opacity="0.36" d="M84.5142 16.4604C84.5142 22.3507 80.1254 30.0698 74.7081 30.0698C69.2908 30.0698 64.902 22.3507 64.902 16.4604C64.902 10.5701 69.2908 5.79773 74.7081 5.79773C80.1254 5.79773 84.5142 10.5701 84.5142 16.4604Z" fill="url(#paint3_radial_164_578)"/>
<g opacity="0.28" filter="url(#filter0_f_164_578)">
<path d="M113.985 51.4481C119.403 51.4481 123.791 47.4099 123.791 42.4258C123.791 37.4418 119.403 33.4036 113.985 33.4036C108.568 33.4036 104.179 37.4418 104.179 42.4258C104.179 47.4099 108.568 51.4481 113.985 51.4481Z" fill="url(#paint4_radial_164_578)"/>
</g>
<g opacity="0.34" filter="url(#filter1_f_164_578)">
<path d="M105.823 34.4355C110.731 34.4355 114.71 31.0621 114.71 26.9015C114.71 22.741 110.731 19.3676 105.823 19.3676C100.915 19.3676 96.9363 22.741 96.9363 26.9015C96.9363 31.0621 100.915 34.4355 105.823 34.4355Z" fill="url(#paint5_radial_164_578)"/>
</g>
<path opacity="0.34" d="M105.019 97.621C112.844 97.621 119.188 88.344 119.188 76.9042C119.188 65.4643 112.844 56.1874 105.019 56.1874C97.1943 56.1874 90.8509 65.461 90.8509 76.9042C90.8509 88.3474 97.1943 97.621 105.019 97.621Z" fill="url(#paint6_radial_164_578)"/>
<path opacity="0.34" d="M104.92 113.661C114.015 113.661 121.39 102.321 121.39 88.3308C121.39 74.341 114.015 63.0004 104.92 63.0004C95.825 63.0004 88.4498 74.341 88.4498 88.3308C88.4498 102.321 95.825 113.661 104.92 113.661Z" fill="url(#paint7_radial_164_578)"/>
<path opacity="0.34" d="M58.1485 133.68C66.5986 130.313 67.8455 113.522 60.9333 96.179C54.0211 78.8357 41.5658 67.5049 33.1157 70.8717C24.6657 74.2385 23.4188 91.0296 30.331 108.373C37.2432 125.716 49.6984 137.047 58.1485 133.68Z" fill="url(#paint8_radial_164_578)"/>
<path d="M73.9838 6.74691C82.6423 6.60469 85.6651 8.66843 88.1555 15.455C86.7466 19.3046 80.7108 27.0338 77.3804 28.8891C74.3741 27.6886 71.2884 24.3747 69.9985 21.5073C69.476 20.3431 69.9059 19.212 69.1122 18.4084C68.4243 18.0148 67.733 17.6212 67.0451 17.2277C66.1092 16.0966 65.1765 14.9655 64.2406 13.8311C64.1976 11.7971 64.4555 10.3452 64.8326 8.81065C65.5668 8.30794 67.2899 7.29922 68.0803 7.03795C69.9192 6.43933 72.4856 7.47781 73.9838 6.7436V6.74691Z" fill="url(#paint9_linear_164_578)"/>
<path d="M74.8701 5.20577C83.5286 5.06356 86.5514 7.1273 89.0418 13.9138C87.6329 17.7635 81.5971 25.4926 78.2667 27.348C75.2604 26.1475 72.1747 22.8336 70.8849 19.9662C70.3623 18.802 70.7922 17.6709 69.9985 16.8672C69.3106 16.4737 68.6194 16.0801 67.9315 15.6865C66.9955 14.5554 66.0628 13.4244 65.1269 12.29C65.0839 10.256 65.3419 8.80409 65.7189 7.26951C66.4531 6.7668 68.1762 5.75808 68.9666 5.49681C70.8055 4.89819 73.3719 5.93668 74.8701 5.20246V5.20577Z" fill="url(#paint10_radial_164_578)"/>
<path d="M48.2995 7.92761C53.7069 8.09298 58.9985 7.26285 59.3723 12.7992C57.4243 15.4517 50.1449 15.498 47.562 13.5368C47.2114 10.8116 46.0638 10.2162 47.7108 8.07644C47.9092 8.02683 48.1044 7.97722 48.3028 7.92761H48.2995Z" fill="url(#paint11_linear_164_578)"/>
<path d="M48.2994 6.93213C53.7068 7.09749 58.9985 6.26737 59.3722 11.8038C57.4242 14.4562 50.1449 14.5025 47.5619 12.5413C47.2113 9.81608 46.0637 9.22077 47.7107 7.08096C47.9092 7.03135 48.1043 6.98174 48.3027 6.93213H48.2994Z" fill="url(#paint12_radial_164_578)"/>
<g opacity="0.51">
<path d="M48.6368 24.2292C50.5352 24.1333 52.2021 24.163 52.9164 25.261C55.8169 30.0632 50.2177 32.0773 48.6368 34.7099C48.7989 35.7352 49.3313 36.6579 50.1119 37.0713H56.313C57.1762 35.1035 56.8885 31.3497 58.0857 29.6895C59.8716 29.1471 63.4336 25.8762 65.0178 27.0602C66.4829 32.0244 64.2306 22.3308 66.9095 27.9697C69.1849 32.7586 71.3479 36.4959 61.8924 45.9514C57.5632 50.1814 57.5433 56.4553 53.2141 60.6886C51.6994 62.2033 49.9167 65.16 47.7538 65.8546C45.4784 66.5855 43.8082 67.4685 41.5526 67.9216C38.7977 67.9712 36.0427 68.0208 33.2877 68.0705C34.184 69.777 33.678 74.1261 34.7628 75.8955C43.5568 75.8392 44.2183 84.5506 49.8208 87.5569C51.2926 88.3474 58.8795 87.6826 61.0391 88.2945C66.721 89.9018 68.7517 94.3832 72.7006 97.5945C73.8647 98.5404 76.5998 97.5945 78.1609 98.1865C82.4736 99.8203 83.9982 104.97 82.5893 111.323C81.6798 115.421 68.7451 122.73 66.0562 127.413C68.1861 131.226 77.3737 131.408 83.4757 130.218C84.577 130.003 86.4158 129.344 87.6098 129.774C87.4113 130.019 87.2162 130.267 87.0178 130.512C86.181 131.005 85.3443 131.497 84.5076 131.987C77.8037 134.11 62.5638 132.91 58.5289 129.626C55.3142 127.009 53.5481 121.562 50.8527 118.553C48.9841 117.174 47.1122 115.798 45.2435 114.419C40.8912 110.473 38.2123 105.261 36.8298 98.3287C35.8773 93.5596 39.2342 92.4947 39.7832 89.4718C38.209 87.6528 36.6347 85.8305 35.0604 84.0115C32.7883 83.1351 30.6221 83.6378 28.8593 82.5365C24.9137 80.0659 16.7447 64.1513 18.5274 55.9658C19.3939 51.9838 24.8079 44.5028 22.6614 41.9429C23.1542 41.007 23.647 40.0743 24.1365 39.1384C22.8533 37.498 23.3924 34.9514 25.466 34.2668C27.4471 33.1952 26.2333 35.6955 28.5649 33.9724C30.804 29.706 35.9468 27.3975 41.1128 26.0019C44.0761 25.1982 46.3846 25.4363 48.6401 24.2292H48.6368Z" fill="url(#paint13_radial_164_578)"/>
</g>
<path d="M74.8701 116.039C68.7682 117.23 59.5805 117.048 57.4507 113.235C60.1395 108.552 73.0742 101.242 73.9837 97.1448C75.3926 90.7882 73.868 85.6387 69.5553 84.0082C67.9943 83.4162 65.2558 84.3654 64.095 83.4162C60.1461 80.2049 58.5553 76.2659 52.8767 74.6586C50.717 74.0467 42.1148 74.4006 40.6431 73.6102C39.0159 72.737 34.0781 61.5584 26.7624 63.1592C26.3424 63.437 36.4197 70.2202 35.9666 70.4649C34.0351 71.596 31.9251 72.3534 29.7423 72.7767C32.0541 73.8152 34.1906 75.2638 36.1121 77.0266C40.1503 80.734 41.8965 86.2506 42.138 91.572C42.2438 94.403 41.6551 97.0455 40.3652 99.4962C40.061 100.426 39.6806 101.312 39.2209 102.149C40.2296 102.893 41.2384 103.637 42.2471 104.378C44.9425 107.384 46.7086 112.834 49.9233 115.451C54.0045 118.771 72.4161 119.535 79.0042 117.313C79.7649 116.78 78.0153 116.413 78.7793 115.88C78.8554 115.788 78.9314 115.692 79.0042 115.599C77.8103 115.166 75.9747 115.828 74.8701 116.043V116.039Z" fill="url(#paint14_linear_164_578)"/>
<path d="M32.1797 78.2668C31.6307 81.2896 28.2739 82.3545 29.2263 87.1236C30.6121 94.0557 33.291 99.268 37.6401 103.214C38.7248 104.014 39.8096 104.811 40.8944 105.611C43.0872 104.705 45.2865 103.812 47.4792 102.909C50.8626 101.421 54.1864 99.774 57.2621 97.7301C57.4904 97.525 57.7119 97.3167 57.9335 97.105C61.9783 93.2223 66.9591 91.3272 72.4789 91.0792C73.2198 91.0461 71.5231 93.8275 72.2507 93.8936C71.4537 91.9324 72.5087 87.7123 70.5574 86.9748C68.9964 86.3828 66.2579 87.332 65.0971 86.3828C61.1482 83.1714 59.1175 78.6934 53.4356 77.0827C51.276 76.4709 43.6891 77.1357 42.2173 76.3452C36.6181 73.3389 35.9567 64.6275 27.1593 64.6838C26.0712 62.9177 26.5772 58.5653 25.6843 56.8587C28.4392 56.8091 31.1942 56.7595 33.9491 56.7099C36.2047 56.2601 37.8749 55.3738 40.1503 54.6429C42.3132 53.9483 44.0959 50.9916 45.6106 49.4769C49.9398 45.2469 54.2724 41.0136 58.6016 36.7836C60.3115 35.0836 68.4044 30.0599 66.129 25.2709C63.4468 19.6287 56.5213 23.5941 55.0562 18.6266C53.472 17.4459 52.2649 17.9354 50.4789 18.4778C49.285 20.138 49.5694 23.8918 48.7062 25.8596H42.5051C41.7246 25.4462 41.1888 24.5235 41.03 23.4982C42.6109 20.8656 48.2134 18.8548 45.3096 14.0493C44.5953 12.948 42.9284 12.9182 41.03 13.0175C38.7745 14.2246 36.466 13.9865 33.5027 14.7902C28.34 16.1891 23.1972 18.4943 20.9548 22.7607C18.6232 24.4871 19.837 21.9835 17.8559 23.055C15.7823 23.7397 15.2432 26.2863 16.5264 27.9267C16.0336 28.8626 15.5408 29.7953 15.0514 30.7312C17.1978 33.2911 11.7871 40.7721 10.9173 44.7541C9.13463 52.9396 17.3036 68.8542 21.2492 71.3248C23.0087 72.4261 25.1782 71.9234 27.4503 72.7998C29.0246 74.6188 30.5989 76.4411 32.1731 78.2601L32.1797 78.2668Z" fill="url(#paint15_linear_164_578)"/>
<path d="M74.8701 117.752C68.7682 118.943 59.5806 118.761 57.4507 114.948C60.1395 110.265 73.0743 102.956 73.9838 98.8579C75.3927 92.5013 73.868 87.3519 69.5553 85.7214C67.9943 85.1294 65.2559 86.0786 64.095 85.1294C60.1461 81.918 58.1155 77.44 52.4336 75.8293C50.2739 75.2175 42.687 75.8822 41.2153 75.0918C35.616 72.0855 34.9546 63.3741 26.1572 63.4303C25.0691 61.6642 25.5751 57.3119 24.6822 55.6053C27.4371 55.5557 30.1921 55.5061 32.9471 55.4565C35.2026 55.0067 36.8728 54.1203 39.1482 53.3894C41.3112 52.6949 43.0938 49.7382 44.6085 48.2235C48.9378 43.9935 53.2703 39.7601 57.5995 35.5301C59.3094 33.8302 67.4023 28.8064 65.1269 24.0175C62.4447 18.3753 55.5192 22.3407 54.0541 17.3732C52.4699 16.1925 51.2628 16.682 49.4769 17.2244C48.2829 18.8846 48.5674 22.6384 47.7042 24.6062H41.503C40.7225 24.1928 40.1867 23.2701 40.028 22.2448C41.6088 19.6122 47.2114 17.6014 44.3076 12.7959C43.5932 11.6946 41.9263 11.6648 40.028 11.764C37.7724 12.9712 35.4639 12.7331 32.5006 13.5367C27.3379 14.9357 22.1951 17.2409 19.9528 21.5073C19.3872 21.9273 19.03 22.096 18.7853 22.1257C18.1966 23.065 17.6046 24.001 17.0324 24.9435C16.2982 26.8783 15.5144 28.7866 14.509 30.5957C14.9588 33.7806 10.6759 39.995 9.91188 43.5007C8.12926 51.6862 16.2982 67.6008 20.2438 70.0714C22.0033 71.1727 24.1729 70.67 26.445 71.5464C28.0192 73.3654 29.5935 75.1877 31.1678 77.0067C30.6187 80.0296 27.2619 81.0945 28.2144 85.8636C29.6001 92.7957 32.279 98.0079 36.6281 101.954C38.4967 103.333 40.3686 104.708 42.2372 106.088C44.9327 109.094 46.6987 114.544 49.9134 117.16C53.9516 120.445 69.1882 121.645 75.8921 119.522C76.7288 119.029 77.5656 118.536 78.4023 118.047C78.6007 117.802 78.7959 117.554 78.9943 117.309C77.8004 116.876 75.9648 117.537 74.8602 117.752H74.8701Z" fill="url(#paint16_radial_164_578)"/>
<path d="M128.984 51.0346C127.532 44.2183 125.061 37.6269 121.661 31.5415C118.271 25.4793 114.015 19.3079 108.34 15.2102C108.055 15.0051 104.923 13.4342 104.923 13.54C104.265 14.0328 103.802 14.6579 103.448 15.4582C103.901 16.5298 105.151 18.2529 104.778 19.4435C104.292 19.8735 103.213 19.7709 102.711 20.181C101.074 21.5271 101.904 22.387 100.938 24.1663C100.25 24.9534 99.5589 25.7406 98.871 26.5277V29.3323C99.4134 29.9243 99.9525 30.513 100.495 31.105C101.084 31.4324 105.125 32.1402 105.81 32.1368C106.488 31.4622 106.997 31.0256 108.022 30.6618C108.221 30.761 108.416 30.8602 108.614 30.9562C109.024 33.258 108.852 35.0969 109.501 37.0085C108.608 38.8572 106.276 39.5485 105.366 41.2881C104.817 42.3398 105.363 43.4974 104.923 44.8302C104.698 45.5082 103.938 46.0605 103.594 46.8972C104.774 49.8936 107.076 52.847 110.678 53.3927C111.24 52.9628 111.485 52.5725 112.302 52.3609C113.307 50.307 113.509 48.068 115.106 46.3085C117.316 48.111 119.717 54.8579 123.669 51.9177H125.587C125.941 54.6098 126.517 57.4408 126.474 61.0689C126.179 61.3137 125.882 61.5617 125.587 61.8064C125.194 61.8561 124.8 61.9057 124.406 61.9553C123.12 60.639 122.574 57.9138 120.864 57.0837C118.854 56.108 112.494 55.8567 111.052 56.1841C109.477 56.0849 109.494 56.2833 107.92 56.1841C106.398 58.9986 105.075 61.9057 103.703 64.7929C101.292 69.8597 97.052 75.9285 96.8833 81.6964C96.8304 83.479 97.7432 85.0665 98.4278 86.7532C98.6362 87.2692 105.661 93.7944 106.398 94.2806C107.559 95.0446 109.421 94.6411 110.235 95.7557C108.73 98.7057 103.614 106.084 101.229 108.155C98.064 110.906 96.2483 111.237 92.6599 113.602L92.7095 113.995C92.8087 114.144 92.6632 112.854 92.7624 113.003C97.8656 112.375 102.033 109.309 105.611 106.706C118.705 97.1778 134.335 76.1766 128.984 51.028V51.0346ZM111.27 29.3356C108.763 28.7733 108.793 27.5331 107.873 25.2015V24.7583C108.694 24.7848 109.348 24.7583 109.792 24.464C110.714 24.669 110.873 25.1056 111.564 25.4958C112.279 25.9622 112.563 25.4132 113.483 25.2015C113.926 25.7439 114.369 26.283 114.812 26.8254C114.862 26.9742 114.911 27.1197 114.961 27.2685C112.659 27.1726 111.935 27.8142 111.27 29.3356Z" fill="url(#paint17_linear_164_578)"/>
<path d="M129.926 49.8871C128.474 43.0708 126.004 36.4793 122.604 30.394C119.214 24.3317 114.958 18.1603 109.282 14.0626C108.998 13.8576 105.866 12.2866 105.866 12.3924C105.208 12.8852 104.745 13.5103 104.391 14.3107C104.844 15.3822 106.094 17.1053 105.72 18.2959C105.234 18.7259 104.156 18.6234 103.653 19.0335C102.016 20.3795 102.846 21.2394 101.881 23.0187C101.193 23.8059 100.502 24.593 99.8136 25.3801V28.1847C100.356 28.7767 100.895 29.3654 101.437 29.9574C102.026 30.2848 106.068 30.9926 106.752 30.9893C107.43 30.3146 107.94 29.878 108.965 29.5142C109.163 29.6134 109.358 29.7127 109.557 29.8086C109.967 32.1104 109.795 33.9493 110.443 35.8609C109.55 37.7097 107.219 38.4009 106.309 40.1405C105.76 41.1922 106.306 42.3498 105.866 43.6826C105.641 44.3606 104.88 44.9129 104.536 45.7496C105.717 48.746 108.019 51.6994 111.621 52.2451C112.183 51.8152 112.428 51.4249 113.244 51.2133C114.25 49.1595 114.452 46.9204 116.049 45.161C118.258 46.9634 120.659 53.7103 124.612 50.7701H126.53C126.884 53.4622 127.459 56.2933 127.416 59.9213C127.122 60.1661 126.824 60.4141 126.53 60.6589C126.136 60.7085 125.743 60.7581 125.349 60.8077C124.063 59.4914 123.517 56.7662 121.807 55.9361C119.796 54.9604 115.275 56.0518 113.836 56.3792C112.262 56.28 110.688 56.1808 109.114 56.0849C109.593 56.118 107.989 60.1826 107.84 60.5266C106.938 62.5936 105.37 64.4953 104.288 66.5293C103.144 68.679 102.029 70.842 100.941 73.0215C100.151 74.6023 99.3704 76.2097 98.9504 77.9262C98.4378 80.0263 98.5039 82.262 99.1059 84.3357C99.7971 86.7136 101.332 87.6661 103.075 89.2999C104.427 90.5699 105.787 92.1078 107.344 93.1363C108.505 93.9003 110.367 93.4968 111.181 94.6114C109.676 97.5615 104.56 104.94 102.175 107.01C99.01 109.762 94.694 110.996 91.1022 113.357C91.1519 113.751 91.2015 114.144 91.2511 114.538C91.3503 114.687 91.4495 114.832 91.5454 114.981C96.6486 114.353 102.876 109.464 106.455 106.862C119.548 97.3333 135.278 75.0323 129.926 49.8804V49.8871ZM112.213 28.188C109.706 27.6258 109.735 26.3855 108.816 24.0539V23.6107C109.636 23.6372 110.291 23.6107 110.734 23.3164C111.657 23.5214 111.816 23.958 112.507 24.3483C113.221 24.8146 113.506 24.2656 114.425 24.0539C114.868 24.5963 115.312 25.1354 115.755 25.6778C115.804 25.8266 115.854 25.9721 115.904 26.121C113.602 26.025 112.877 26.6667 112.213 28.188Z" fill="url(#paint18_radial_164_578)"/>
<path opacity="0.08" d="M65.1235 34.5446C64.6142 30.9033 54.9173 29.243 43.4642 30.8405C32.0111 32.4379 23.1376 36.6877 23.6436 40.329C24.1497 43.9704 33.8499 45.6306 45.303 44.0332C56.7561 42.4358 65.6295 38.1859 65.1235 34.5446Z" fill="url(#paint19_radial_164_578)"/>
<path d="M12.0517 26.0218C14.8298 31.1546 26.6963 35.9469 31.9384 37.7064C32.5965 37.9246 36.3437 38.3248 35.3019 39.9189C34.8223 40.6498 36.6546 37.326 36.8728 36.4661C38.3049 30.8702 39.813 15.9709 37.9808 10.5536C35.6855 3.76046 28.7998 -1.55764 21.8776 0.416802C9.38274 3.97213 6.4128 15.6104 12.0517 26.0251V26.0218ZM18.5174 19.7313C16.6951 15.6005 18.0776 10.9902 21.6097 9.42914C25.1419 7.87141 29.4811 9.95499 31.3034 14.0858C33.1257 18.2166 31.7433 22.8269 28.2111 24.388C24.6789 25.9457 20.3398 23.8621 18.5174 19.7313Z" fill="url(#paint20_radial_164_578)"/>
<path d="M14.6247 27.2289C17.4028 32.3618 27.1957 37.1209 32.4344 38.8771C33.0926 39.0954 36.9885 40.2496 37.3656 40.1272C38.1825 39.8594 38.7183 37.5343 38.9365 36.6744C40.3686 31.0785 41.8767 16.1792 40.0445 10.7619C37.7525 3.96877 30.8072 -1.54116 23.9446 0.62511C13.1431 4.03161 8.98913 16.8175 14.6247 27.2322V27.2289ZM20.5844 19.933C18.7621 15.8022 20.1446 11.1919 23.6767 9.63083C27.2089 8.06979 31.5481 10.1567 33.3704 14.2875C35.1927 18.4183 33.8103 23.0286 30.2781 24.5896C26.7459 26.1474 22.4068 24.0638 20.5844 19.933Z" fill="#54B04C"/>
<path d="M98.4119 104.652C98.4119 110.612 91.3541 113.228 87.1671 113.301C82.8114 113.38 73.2666 114.567 80.8568 105.072C84.5775 100.415 85.7285 98.7915 89.9155 98.7915C94.1025 98.7915 98.4119 98.6923 98.4119 104.652Z" fill="url(#paint21_radial_164_578)"/>
<path d="M109.382 40.2166C106.556 40.8237 105.075 45.2395 103.825 47.2559C101.758 50.6021 98.9399 53.3629 95.6014 55.4443C92.1255 57.6125 89.907 57.8004 89.3867 62.1078C88.8447 66.567 89.6396 72.992 90.6152 77.3138C91.6124 81.7513 92.7975 86.1599 94.344 90.4529C96.9888 97.7957 100.855 104.958 106.094 110.855C109.23 114.382 112.807 117.548 116.717 120.236C119.853 122.397 122.707 124.536 126.761 123.886C126.993 123.85 127.217 123.806 127.441 123.756C131.054 122.975 134.024 120.677 136.727 118.285C139.104 116.182 141.734 114.346 143.866 111.975C145.976 109.627 147.92 107.083 149.748 104.51C153.571 99.1327 156.794 93.3221 159.287 87.2151C159.388 86.9694 159.482 86.7236 159.583 86.4851C161.361 82.0043 162.749 77.3644 163.652 72.6378C164.093 70.3396 164.418 68.0196 164.627 65.6925C164.815 63.5532 165.458 60.6985 164.064 58.8483C163.254 57.7787 161.946 57.215 160.732 56.6079C156.635 54.5626 153.571 51.5633 150.681 48.1304C149.77 47.0463 148.462 44.1193 147.002 42.2908C145.687 40.643 143.144 40.2817 141.012 40.2239C134.725 40.0576 118.299 40.0432 109.996 40.1516C109.779 40.1516 109.577 40.1805 109.375 40.2239L109.382 40.2166Z" fill="url(#paint22_linear_164_578)"/>
<path d="M106.622 40.0576C104.114 40.5924 102.9 44.9432 101.838 46.9234C100.074 50.2046 97.632 52.8786 94.7053 54.8661C91.6558 56.9403 89.6902 57.0704 89.3289 61.3417C88.9531 65.7647 89.8203 72.1752 90.7959 76.4899C91.7931 80.9274 92.9638 85.3432 94.4452 89.6434C96.9816 97.0079 100.609 104.228 105.422 110.219C108.305 113.804 111.572 117.034 115.127 119.81C117.974 122.036 120.576 124.233 124.174 123.683C124.377 123.655 124.579 123.618 124.774 123.575C128.611 122.751 131.48 119.831 134.132 117.143C136.12 115.126 138.23 113.218 140.036 111.029C141.836 108.846 143.368 106.374 144.827 103.96C147.992 98.7063 150.587 93.1124 152.538 87.2945C154.019 82.8787 155.132 78.3039 155.826 73.6207C156.165 71.3441 156.397 69.0459 156.527 66.7332C156.642 64.6084 157.148 61.7825 155.855 59.9107C155.11 58.8266 153.925 58.234 152.827 57.6052C149.127 55.466 146.316 52.4161 143.657 48.9253C142.818 47.8268 141.583 44.8781 140.231 43.028C139.017 41.3585 136.741 40.9321 134.84 40.8309C129.233 40.5129 114.578 40.0937 107.178 39.9998C106.99 39.9998 106.802 40.0142 106.629 40.0576H106.622Z" fill="url(#paint23_linear_164_578)"/>
<path d="M109.36 45.6948C107.113 46.179 106.007 50.0094 105.046 51.7512C103.456 54.6421 101.252 57.0054 98.6219 58.7688C95.8831 60.6045 94.1199 60.7274 93.7803 64.4927C93.4262 68.3882 94.185 74.0254 95.0377 77.8197C95.9193 81.7224 96.9454 85.6034 98.2534 89.3832C100.501 95.8588 103.717 102.197 108.016 107.451C110.589 110.595 113.501 113.428 116.673 115.856C119.217 117.801 121.537 119.73 124.767 119.232C124.948 119.203 125.128 119.174 125.302 119.13C129.876 118.147 133.569 113.797 136.784 110.508C142.948 104.206 147.349 95.6636 150.305 87.0849C151.642 83.1967 152.668 79.1639 153.304 75.0372C153.614 73.0353 153.831 71.0117 153.954 68.9736C154.07 67.1018 154.525 64.6156 153.383 62.975C152.718 62.021 151.663 61.5079 150.681 60.9586C147.371 59.094 144.863 56.4127 142.5 53.3556C141.756 52.3944 140.658 49.7999 139.458 48.1737C138.374 46.7138 136.336 46.3453 134.638 46.2585C129.616 45.9983 116.493 45.6876 109.859 45.6298C109.685 45.6298 109.526 45.6442 109.36 45.6804V45.6948Z" fill="url(#paint24_radial_164_578)"/>
<path d="M107.178 45.6948C104.931 46.179 103.818 49.9733 102.857 51.6934C101.26 54.5553 99.0556 56.8969 96.4179 58.6531C93.6792 60.4744 91.9087 60.6045 91.5618 64.3193C91.2005 68.1714 91.9376 73.7435 92.7831 77.4944C93.6503 81.3538 94.6692 85.1842 95.9699 88.9206C98.1956 95.3167 101.397 101.575 105.675 106.757C108.233 109.865 111.138 112.655 114.303 115.04C116.84 116.955 119.152 118.856 122.382 118.357C122.563 118.328 122.744 118.299 122.917 118.256C127.491 117.273 131.198 112.958 134.414 109.706C140.585 103.462 145.008 95.0059 147.985 86.514C149.336 82.6619 150.363 78.6725 151.013 74.5963C151.331 72.6161 151.555 70.6141 151.678 68.5978C151.793 66.7476 152.263 64.2904 151.121 62.6642C150.457 61.7247 149.402 61.2188 148.426 60.6768C145.124 58.841 142.63 56.2031 140.267 53.1822C139.523 52.2282 138.432 49.677 137.24 48.0725C136.163 46.6271 134.125 46.273 132.427 46.1935C127.405 45.9477 114.289 45.6731 107.662 45.637C107.489 45.637 107.33 45.6514 107.164 45.6876L107.178 45.6948Z" fill="url(#paint25_radial_164_578)"/>
<path d="M106.665 45.5213C104.461 45.991 103.384 49.7781 102.452 51.4982C100.898 54.3529 98.7449 56.6801 96.1651 58.4218C93.4841 60.2286 91.7498 60.3515 91.4246 64.0662C91.085 67.9111 91.8365 73.4833 92.682 77.2342C93.5492 81.0935 94.5608 84.9239 95.8544 88.6604C98.0656 95.0565 101.231 101.322 105.451 106.526C107.973 109.641 110.835 112.438 113.949 114.845C116.449 116.774 118.726 118.675 121.891 118.191C122.072 118.162 122.245 118.133 122.418 118.097C126.899 117.136 130.519 112.843 133.663 109.605C139.689 103.389 143.996 94.9625 146.88 86.4922C148.188 82.6546 149.178 78.6724 149.799 74.6035C150.103 72.6233 150.312 70.6285 150.428 68.6194C150.536 66.7692 150.984 64.3192 149.857 62.6931C149.207 61.7535 148.166 61.2404 147.205 60.6911C143.96 58.841 141.496 56.1958 139.169 53.1676C138.439 52.2137 137.355 49.6552 136.177 48.0436C135.115 46.5981 133.113 46.2295 131.444 46.1428C126.516 45.8754 113.653 45.5502 107.149 45.4779C106.983 45.4779 106.817 45.4924 106.665 45.5285V45.5213Z" fill="#EFEFF0"/>
<path d="M132.846 73.9387V73.9242C132.846 72.7751 132.03 71.8066 130.917 71.4814V69.3277C130.917 63.4809 125.952 58.7399 119.925 58.7399H119.513C113.61 58.7399 108.905 63.3147 108.905 68.9591V70.9827C107.763 71.1634 106.903 72.1174 106.889 73.2882C106.578 73.8086 106.412 74.4012 106.412 75.0083V88.0606C106.412 89.6144 107.474 91.0237 108.999 91.5152C109.411 92.4475 110.336 93.0907 111.362 93.1485L114.325 93.3148C115.315 93.3726 116.218 92.8811 116.666 92.05L122.216 92.3463C122.671 93.2353 123.604 93.8351 124.615 93.8857L127.708 94.0592C128.228 94.0881 128.742 93.9724 129.182 93.7339C129.609 93.4954 129.956 93.1485 130.18 92.7221C132.001 92.527 133.337 91.1032 133.337 89.3543V75.731C133.337 75.1095 133.164 74.4952 132.839 73.9459L132.846 73.9387ZM117.837 87.15C117.837 87.15 117.823 87.15 117.815 87.15C117.794 87.15 117.779 87.1355 117.765 87.1355C117.649 87.1066 117.555 87.0488 117.49 86.9621C117.49 86.9621 117.483 86.9476 117.476 86.9404C117.411 86.8464 117.374 86.738 117.396 86.6224L118.126 81.8741V81.8597C118.126 81.8524 118.119 81.8452 118.119 81.8308C118.119 81.7296 118.09 81.6356 118.032 81.5561C118.025 81.5417 118.032 81.52 118.018 81.5128C117.996 81.4838 117.967 81.4622 117.938 81.4405C117.938 81.4405 117.931 81.4405 117.931 81.4333C117.729 81.2887 117.555 81.1297 117.396 80.949C117.353 80.8984 117.317 80.8406 117.273 80.79C117.165 80.6527 117.071 80.5082 116.984 80.3492C116.948 80.2841 116.919 80.2191 116.89 80.1468C116.825 79.9878 116.767 79.8288 116.731 79.6626C116.717 79.5976 116.695 79.5325 116.688 79.4602C116.652 79.229 116.637 78.9977 116.659 78.7592C116.659 78.7231 116.674 78.6869 116.681 78.6508C116.717 78.3689 116.804 78.1087 116.919 77.863C116.934 77.8341 116.941 77.8124 116.955 77.7835C117.078 77.5378 117.252 77.321 117.44 77.1186C117.468 77.0825 117.505 77.0536 117.541 77.0247C117.743 76.8368 117.974 76.6778 118.227 76.5477C118.256 76.5332 118.285 76.526 118.314 76.5115C118.56 76.4031 118.827 76.3236 119.102 76.2875C119.159 76.2803 119.217 76.2586 119.275 76.2586C119.391 76.2514 119.499 76.2441 119.615 76.2514C119.839 76.2514 120.055 76.2947 120.265 76.3453C120.337 76.367 120.41 76.3887 120.482 76.4104C120.626 76.4609 120.771 76.5115 120.908 76.5766C120.973 76.6127 121.038 76.6416 121.103 76.685C121.241 76.7645 121.371 76.8584 121.493 76.9596C121.544 77.003 121.595 77.0391 121.645 77.0825C121.804 77.2343 121.963 77.3933 122.086 77.5812C122.202 77.7474 122.296 77.9136 122.368 78.0943C122.397 78.1521 122.411 78.2244 122.433 78.2822C122.476 78.3978 122.52 78.5135 122.541 78.6363C122.556 78.7158 122.563 78.7953 122.57 78.8748C122.585 78.9832 122.606 79.0844 122.606 79.1928C122.606 79.3229 122.592 79.4602 122.57 79.5903C122.563 79.6554 122.556 79.7276 122.541 79.7927C122.476 80.089 122.361 80.3709 122.202 80.6238C122.187 80.6527 122.173 80.6816 122.158 80.7105C121.999 80.9563 121.79 81.1659 121.559 81.3465C121.472 81.4116 121.392 81.4911 121.298 81.5489C121.233 81.5923 121.183 81.6501 121.147 81.7151C121.132 81.7368 121.132 81.7585 121.125 81.7874C121.111 81.8235 121.096 81.8524 121.096 81.8886C121.096 81.9175 121.096 81.9464 121.096 81.9753L121.349 83.6231L121.833 86.8031C121.833 86.8031 121.833 86.8103 121.833 86.8175C121.833 86.8175 121.833 86.8247 121.833 86.832C121.84 86.9259 121.79 87.0054 121.746 87.0849C121.725 87.1138 121.732 87.1572 121.703 87.1861C121.616 87.2584 121.501 87.309 121.378 87.3017L117.88 87.1427L117.837 87.15ZM123.365 71.9295L115.879 71.7705C115.409 71.3152 114.78 71.055 114.13 71.0406L112.872 71.0189V68.8579C112.872 65.3022 115.85 62.433 119.557 62.4546H119.882C123.64 62.4763 126.718 65.4467 126.718 69.082V71.2863L125.172 71.2574C124.5 71.2429 123.849 71.4814 123.365 71.9223V71.9295Z" fill="#6EB385"/>
<path d="M122.621 65.967C121.941 65.9598 121.385 66.4801 121.385 67.1378C121.385 67.7955 121.934 68.3303 122.621 68.3375C123.3 68.3447 123.856 67.8244 123.856 67.1667C123.856 66.509 123.3 65.9742 122.621 65.967Z" fill="#6EB385"/>
<path d="M117.793 67.0945C117.793 66.4441 117.252 65.9093 116.579 65.9021C115.907 65.8948 115.373 66.4152 115.373 67.0584C115.373 67.7016 115.915 68.2364 116.579 68.2509C117.252 68.2581 117.793 67.745 117.793 67.0945Z" fill="#6EB385"/>
<path d="M121.306 69.082C121.306 69.082 121.298 69.0892 121.291 69.0964C120.323 69.9203 118.849 69.8986 117.888 69.0386C117.757 68.923 117.562 68.923 117.44 69.0458C117.324 69.1687 117.331 69.3566 117.454 69.4795C118.646 70.5852 120.518 70.6214 121.718 69.5517C121.848 69.4433 121.862 69.2482 121.746 69.1181C121.631 68.988 121.428 68.9736 121.298 69.082H121.306Z" fill="#6EB385"/>
<path d="M132.55 73.9387V73.9242C132.55 72.7751 131.733 71.8066 130.62 71.4814V69.3277C130.62 63.4809 125.656 58.7399 119.629 58.7399H119.217C113.313 58.7399 108.609 63.3147 108.609 68.9591V70.9827C107.467 71.1634 106.607 72.1174 106.593 73.2882C106.282 73.8086 106.116 74.4012 106.116 75.0083V88.0606C106.116 89.6144 107.178 91.0237 108.703 91.5152C109.115 92.4475 110.04 93.0907 111.066 93.1485L114.029 93.3148C115.019 93.3726 115.922 92.8811 116.37 92.05L121.92 92.3463C122.375 93.2353 123.307 93.8351 124.319 93.8857L127.412 94.0592C127.932 94.0881 128.445 93.9724 128.886 93.7339C129.312 93.4954 129.659 93.1485 129.883 92.7221C131.704 92.527 133.041 91.1032 133.041 89.3543V75.731C133.041 75.1095 132.868 74.4952 132.542 73.9459L132.55 73.9387ZM117.541 87.15C117.541 87.15 117.526 87.15 117.519 87.15C117.497 87.15 117.483 87.1355 117.468 87.1355C117.353 87.1066 117.259 87.0488 117.194 86.9621C117.194 86.9621 117.186 86.9476 117.179 86.9404C117.114 86.8464 117.078 86.738 117.1 86.6224L117.83 81.8741V81.8597C117.83 81.8524 117.822 81.8452 117.822 81.8308C117.822 81.7296 117.793 81.6356 117.736 81.5561C117.728 81.5417 117.736 81.52 117.721 81.5128C117.7 81.4838 117.671 81.4622 117.642 81.4405C117.642 81.4405 117.635 81.4405 117.635 81.4333C117.432 81.2887 117.259 81.1297 117.1 80.949C117.056 80.8984 117.02 80.8406 116.977 80.79C116.869 80.6527 116.775 80.5082 116.688 80.3492C116.652 80.2841 116.623 80.2191 116.594 80.1468C116.529 79.9878 116.471 79.8288 116.435 79.6626C116.42 79.5976 116.399 79.5325 116.392 79.4602C116.355 79.229 116.341 78.9977 116.363 78.7592C116.363 78.7231 116.377 78.6869 116.384 78.6508C116.42 78.3689 116.507 78.1087 116.623 77.863C116.637 77.8341 116.645 77.8124 116.659 77.7835C116.782 77.5378 116.955 77.321 117.143 77.1186C117.172 77.0825 117.208 77.0536 117.244 77.0247C117.447 76.8368 117.678 76.6778 117.931 76.5477C117.96 76.5332 117.989 76.526 118.018 76.5115C118.263 76.4031 118.531 76.3236 118.805 76.2875C118.863 76.2803 118.921 76.2586 118.979 76.2586C119.094 76.2514 119.203 76.2441 119.318 76.2514C119.542 76.2514 119.759 76.2947 119.969 76.3453C120.041 76.367 120.113 76.3887 120.185 76.4104C120.33 76.4609 120.474 76.5115 120.612 76.5766C120.677 76.6127 120.742 76.6416 120.807 76.685C120.944 76.7645 121.074 76.8584 121.197 76.9596C121.248 77.003 121.298 77.0391 121.349 77.0825C121.508 77.2343 121.667 77.3933 121.79 77.5812C121.905 77.7474 121.999 77.9136 122.071 78.0943C122.1 78.1521 122.115 78.2244 122.137 78.2822C122.18 78.3978 122.223 78.5135 122.245 78.6363C122.259 78.7158 122.267 78.7953 122.274 78.8748C122.288 78.9832 122.31 79.0844 122.31 79.1928C122.31 79.3229 122.296 79.4602 122.274 79.5903C122.267 79.6554 122.259 79.7276 122.245 79.7927C122.18 80.089 122.064 80.3709 121.905 80.6238C121.891 80.6527 121.876 80.6816 121.862 80.7105C121.703 80.9563 121.493 81.1659 121.262 81.3465C121.175 81.4116 121.096 81.4911 121.002 81.5489C120.937 81.5923 120.886 81.6501 120.85 81.7151C120.836 81.7368 120.836 81.7585 120.829 81.7874C120.814 81.8235 120.8 81.8524 120.8 81.8886C120.8 81.9175 120.8 81.9464 120.8 81.9753L121.053 83.6231L121.537 86.8031C121.537 86.8031 121.537 86.8103 121.537 86.8175C121.537 86.8175 121.537 86.8247 121.537 86.832C121.544 86.9259 121.493 87.0054 121.45 87.0849C121.428 87.1138 121.436 87.1572 121.407 87.1861C121.32 87.2584 121.204 87.309 121.081 87.3017L117.584 87.1427L117.541 87.15ZM123.069 71.9295L115.582 71.7705C115.113 71.3152 114.484 71.055 113.833 71.0406L112.576 71.0189V68.8579C112.576 65.3022 115.553 62.433 119.26 62.4546H119.586C123.343 62.4763 126.422 65.4467 126.422 69.082V71.2863L124.875 71.2574C124.203 71.2429 123.553 71.4814 123.069 71.9223V71.9295Z" fill="#57B553"/>
<path d="M122.324 65.967C121.645 65.9598 121.089 66.4801 121.089 67.1378C121.089 67.7955 121.638 68.3303 122.324 68.3375C123.004 68.3447 123.56 67.8244 123.56 67.1667C123.56 66.509 123.004 65.9742 122.324 65.967Z" fill="#57B553"/>
<path d="M117.497 67.0945C117.497 66.4441 116.955 65.9093 116.283 65.9021C115.611 65.8948 115.076 66.4152 115.076 67.0584C115.076 67.7016 115.618 68.2364 116.283 68.2509C116.955 68.2581 117.497 67.745 117.497 67.0945Z" fill="#57B553"/>
<path d="M121.009 69.082C121.009 69.082 121.002 69.0892 120.995 69.0964C120.027 69.9203 118.552 69.8986 117.591 69.0386C117.461 68.923 117.266 68.923 117.143 69.0458C117.028 69.1687 117.035 69.3566 117.158 69.4795C118.35 70.5852 120.222 70.6214 121.421 69.5517C121.551 69.4433 121.566 69.2482 121.45 69.1181C121.335 68.988 121.132 68.9736 121.002 69.082H121.009Z" fill="#57B553"/>
<defs>
<filter id="filter0_f_164_578" x="99.1792" y="28.4036" width="29.6122" height="28.0446" filterUnits="userSpaceOnUse" color-interpolation-filters="sRGB">
<feFlood flood-opacity="0" result="BackgroundImageFix"/>
<feBlend mode="normal" in="SourceGraphic" in2="BackgroundImageFix" result="shape"/>
<feGaussianBlur stdDeviation="2.5" result="effect1_foregroundBlur_164_578"/>
</filter>
<filter id="filter1_f_164_578" x="91.0363" y="13.4676" width="29.5733" height="26.868" filterUnits="userSpaceOnUse" color-interpolation-filters="sRGB">
<feFlood flood-opacity="0" result="BackgroundImageFix"/>
<feBlend mode="normal" in="SourceGraphic" in2="BackgroundImageFix" result="shape"/>
<feGaussianBlur stdDeviation="2.95" result="effect1_foregroundBlur_164_578"/>
</filter>
<linearGradient id="paint0_linear_164_578" x1="55.559" y1="3.6248" x2="91.9919" y2="3.6248" gradientUnits="userSpaceOnUse">
<stop stop-color="#BBBBBF"/>
<stop offset="0.6" stop-color="#DEDEDF"/>
<stop offset="0.66" stop-color="white"/>
<stop offset="1" stop-color="#B3B3B5"/>
</linearGradient>
<radialGradient id="paint1_radial_164_578" cx="0" cy="0" r="1" gradientTransform="matrix(-0.410908 0.0168552 0.00484768 0.0660753 79.0876 124.164)" gradientUnits="userSpaceOnUse">
<stop offset="0.34" stop-color="#2A2D3B" stop-opacity="0"/>
<stop offset="0.78"/>
<stop offset="1"/>
</radialGradient>
<radialGradient id="paint2_radial_164_578" cx="0" cy="0" r="1" gradientUnits="userSpaceOnUse" gradientTransform="translate(88.7415 36.7862) scale(110.066 105.747)">
<stop stop-color="#53B561"/>
<stop offset="0.49" stop-color="#499E54"/>
<stop offset="1" stop-color="#2B5E2F"/>
</radialGradient>
<radialGradient id="paint3_radial_164_578" cx="0" cy="0" r="1" gradientUnits="userSpaceOnUse" gradientTransform="translate(79.3664 16.2592) scale(21.8115 26.4483)">
<stop offset="0.22" stop-opacity="0"/>
<stop offset="0.47" stop-opacity="0.5"/>
<stop offset="0.62" stop-opacity="0"/>
</radialGradient>
<radialGradient id="paint4_radial_164_578" cx="0" cy="0" r="1" gradientUnits="userSpaceOnUse" gradientTransform="translate(113.186 40.5446) scale(19.9429 20.439)">
<stop offset="0.22" stop-opacity="0"/>
<stop offset="0.47" stop-opacity="0.5"/>
<stop offset="0.62" stop-opacity="0"/>
</radialGradient>
<radialGradient id="paint5_radial_164_578" cx="0" cy="0" r="1" gradientUnits="userSpaceOnUse" gradientTransform="translate(104.428 26.2115) scale(17.9486 17.2012)">
<stop offset="0.22" stop-opacity="0"/>
<stop offset="0.47" stop-opacity="0.5"/>
<stop offset="0.62" stop-opacity="0"/>
</radialGradient>
<radialGradient id="paint6_radial_164_578" cx="0" cy="0" r="1" gradientUnits="userSpaceOnUse" gradientTransform="translate(109.689 71.1916) rotate(-49.88) scale(27.2057 18.5009)">
<stop offset="0.22" stop-opacity="0"/>
<stop offset="0.47" stop-opacity="0.5"/>
<stop offset="0.62" stop-opacity="0"/>
</radialGradient>
<radialGradient id="paint7_radial_164_578" cx="0" cy="0" r="1" gradientUnits="userSpaceOnUse" gradientTransform="translate(113.525 77.173) rotate(-51.3) scale(32.6461 22.0364)">
<stop offset="0.22" stop-opacity="0"/>
<stop offset="0.47" stop-opacity="0.5"/>
<stop offset="0.62" stop-opacity="0"/>
</radialGradient>
<radialGradient id="paint8_radial_164_578" cx="0" cy="0" r="1" gradientUnits="userSpaceOnUse" gradientTransform="translate(51.0936 66.6258) rotate(-80.75) scale(39.7204 24.2126)">
<stop offset="0.22" stop-opacity="0"/>
<stop offset="0.47" stop-opacity="0.5"/>
<stop offset="0.62" stop-opacity="0"/>
</radialGradient>
<linearGradient id="paint9_linear_164_578" x1="64.2373" y1="17.8164" x2="88.1555" y2="17.8164" gradientUnits="userSpaceOnUse">
<stop offset="0.1" stop-color="#7B7B7D"/>
<stop offset="0.3" stop-color="#B2B2B5"/>
<stop offset="0.7" stop-color="#DEDEDF"/>
<stop offset="1" stop-color="white"/>
</linearGradient>
<radialGradient id="paint10_radial_164_578" cx="0" cy="0" r="1" gradientUnits="userSpaceOnUse" gradientTransform="translate(53.229 26.7226) scale(42.3034 42.3034)">
<stop stop-color="#9D9D9E"/>
<stop offset="1" stop-color="white"/>
</radialGradient>
<linearGradient id="paint11_linear_164_578" x1="46.8443" y1="11.4201" x2="59.3723" y2="11.4201" gradientUnits="userSpaceOnUse">
<stop offset="0.1" stop-color="#7B7B7D"/>
<stop offset="0.3" stop-color="#B2B2B5"/>
<stop offset="0.7" stop-color="#DEDEDF"/>
<stop offset="1" stop-color="white"/>
</linearGradient>
<radialGradient id="paint12_radial_164_578" cx="0" cy="0" r="1" gradientUnits="userSpaceOnUse" gradientTransform="translate(30.8505 17.5774) scale(41.5626 41.5626)">
<stop stop-color="#DCDCDD"/>
<stop offset="1" stop-color="white"/>
</radialGradient>
<radialGradient id="paint13_radial_164_578" cx="0" cy="0" r="1" gradientUnits="userSpaceOnUse" gradientTransform="translate(27.2343 18.7075) scale(66.6582)">
<stop offset="0.37" stop-opacity="0"/>
<stop offset="0.47" stop-opacity="0.7"/>
<stop offset="0.51" stop-opacity="0.33"/>
<stop offset="0.62" stop-opacity="0"/>
</radialGradient>
<linearGradient id="paint14_linear_164_578" x1="35.3878" y1="127.201" x2="70.8187" y2="52.5097" gradientUnits="userSpaceOnUse">
<stop stop-color="#B2B2B5"/>
<stop offset="0.7" stop-color="#DEDEDF"/>
<stop offset="1" stop-color="white"/>
</linearGradient>
<linearGradient id="paint15_linear_164_578" x1="44.0661" y1="56.6206" x2="30.7345" y2="12.4255" gradientUnits="userSpaceOnUse">
<stop offset="0.1" stop-color="#7B7B7D"/>
<stop offset="0.3" stop-color="#B2B2B5"/>
<stop offset="0.7" stop-color="#DEDEDF"/>
<stop offset="1" stop-color="white"/>
</linearGradient>
<radialGradient id="paint16_radial_164_578" cx="0" cy="0" r="1" gradientUnits="userSpaceOnUse" gradientTransform="translate(24.9646 133.905) scale(155.789 155.789)">
<stop offset="0.06" stop-color="#057900"/>
<stop offset="0.23" stop-color="#9D9D9E"/>
<stop offset="1" stop-color="white"/>
</radialGradient>
<linearGradient id="paint17_linear_164_578" x1="104.53" y1="-6.85927" x2="112.96" y2="108.356" gradientUnits="userSpaceOnUse">
<stop stop-color="#5C5C5E"/>
<stop offset="0.6" stop-color="#DEDEDF"/>
<stop offset="0.67" stop-color="#ABABAB"/>
<stop offset="0.79" stop-color="#666667"/>
</linearGradient>
<radialGradient id="paint18_radial_164_578" cx="0" cy="0" r="1" gradientUnits="userSpaceOnUse" gradientTransform="translate(67.1423 128.177) scale(155.789 155.789)">
<stop offset="0.05" stop-color="#B7B7B8"/>
<stop offset="0.16" stop-color="#DCDCDD"/>
<stop offset="0.46" stop-color="#E8E8E9"/>
<stop offset="1" stop-color="white"/>
</radialGradient>
<radialGradient id="paint19_radial_164_578" cx="0" cy="0" r="1" gradientUnits="userSpaceOnUse" gradientTransform="translate(-25.5611 54.1803) rotate(167.27) scale(24.0307 7.64312)">
<stop/>
<stop offset="0.22"/>
<stop offset="0.66" stop-color="#35394B" stop-opacity="0"/>
</radialGradient>
<radialGradient id="paint20_radial_164_578" cx="0" cy="0" r="1" gradientUnits="userSpaceOnUse" gradientTransform="translate(18.1415 29.9028) rotate(-23.82) scale(44.0099 44.01)">
<stop offset="0.33" stop-color="#7DDB74"/>
<stop offset="1" stop-color="#A4CF9F"/>
</radialGradient>
<radialGradient id="paint21_radial_164_578" cx="0" cy="0" r="1" gradientUnits="userSpaceOnUse" gradientTransform="translate(90.3355 106.954) scale(8.83374 8.83374)">
<stop stop-color="#3F8948"/>
<stop offset="0.88" stop-color="#4AA156" stop-opacity="0"/>
</radialGradient>
<linearGradient id="paint22_linear_164_578" x1="121.074" y1="46.9957" x2="142.599" y2="119.743" gradientUnits="userSpaceOnUse">
<stop offset="0.05" stop-color="#A7ADC2"/>
<stop offset="0.27" stop-color="#8A8FA0"/>
<stop offset="0.6" stop-color="#6B6F7E"/>
<stop offset="1" stop-color="#2F3138"/>
</linearGradient>
<linearGradient id="paint23_linear_164_578" x1="136.517" y1="183.835" x2="118.7" y2="26.8323" gradientUnits="userSpaceOnUse">
<stop stop-color="#2F3138"/>
<stop offset="0.6" stop-color="#6B6F7E"/>
</linearGradient>
<radialGradient id="paint24_radial_164_578" cx="0" cy="0" r="1" gradientUnits="userSpaceOnUse" gradientTransform="translate(126.703 83.585) rotate(0.150018) scale(37.4686 37.8477)">
<stop offset="0.03"/>
<stop offset="1" stop-opacity="0"/>
</radialGradient>
<radialGradient id="paint25_radial_164_578" cx="0" cy="0" r="1" gradientUnits="userSpaceOnUse" gradientTransform="translate(121.674 82.0476) scale(54.8841 54.8905)">
<stop offset="0.13" stop-color="#FEFFFF"/>
<stop offset="0.46" stop-color="#ECEDED"/>
<stop offset="1" stop-color="#AFB1B8"/>
</radialGradient>
</defs>
</svg>
