<svg width="120" height="120" viewBox="0 0 120 120" fill="none" xmlns="http://www.w3.org/2000/svg">
<g clip-path="url(#clip0_11_22443)">
<path d="M60 120C93.1371 120 120 93.1371 120 60C120 26.8629 93.1371 0 60 0C26.8629 0 0 26.8629 0 60C0 93.1371 26.8629 120 60 120Z" fill="#D80027"/>
<path d="M57.5433 49.0281L62.4663 55.8121L70.4391 53.2269L65.5083 60.005L70.4306 66.7888L62.4607 64.1938L57.5302 70.9719L57.5353 62.5904L49.5652 59.9954L57.5381 57.4103L57.5433 49.0281Z" fill="#F0F0F0"/>
<path d="M44.108 76.9566C34.7433 76.9566 27.1514 69.3647 27.1514 60.0001C27.1514 50.6354 34.7433 43.0435 44.108 43.0435C47.0278 43.0435 49.7752 43.782 52.1737 45.0816C48.4109 41.4015 43.2647 39.1304 37.5862 39.1304C26.0602 39.1304 16.7168 48.474 16.7168 59.9998C16.7168 71.5257 26.0604 80.8693 37.5862 80.8693C43.2652 80.8693 48.4111 78.5979 52.1737 74.918C49.7752 76.2181 47.0278 76.9566 44.108 76.9566Z" fill="#F0F0F0"/>
</g>
<defs>
<clipPath id="clip0_11_22443">
<rect width="120" height="120" fill="white"/>
</clipPath>
</defs>
</svg>
