<svg width="120" height="120" viewBox="0 0 120 120" fill="none" xmlns="http://www.w3.org/2000/svg">
<g clip-path="url(#clip0_11_22400)">
<path d="M60 120C93.1371 120 120 93.1371 120 60C120 26.8629 93.1371 0 60 0C26.8629 0 0 26.8629 0 60C0 93.1371 26.8629 120 60 120Z" fill="#F0F0F0"/>
<path d="M60 0C35.1949 0 13.9071 15.053 4.76904 36.5217H115.231C106.093 15.053 84.8051 0 60 0Z" fill="#A2001D"/>
<path d="M60 120C84.8051 120 106.093 104.947 115.231 83.4783H4.76904C13.9071 104.947 35.1949 120 60 120Z" fill="#496E2D"/>
<path d="M117.933 44.3477H2.06695C0.721875 49.3383 0 54.5843 0 60C0 65.4157 0.721875 70.6617 2.06695 75.6523H117.933C119.278 70.6617 120 65.4157 120 60C120 54.5843 119.278 49.3383 117.933 44.3477Z" fill="#0052B4"/>
</g>
<defs>
<clipPath id="clip0_11_22400">
<rect width="120" height="120" fill="white"/>
</clipPath>
</defs>
</svg>
