<svg width="120" height="120" viewBox="0 0 120 120" fill="none" xmlns="http://www.w3.org/2000/svg">
<g clip-path="url(#clip0_11_22446)">
<path d="M60 120C93.1371 120 120 93.1371 120 60C120 26.8629 93.1371 0 60 0C26.8629 0 0 26.8629 0 60C0 93.1371 26.8629 120 60 120Z" fill="#F0F0F0"/>
<path d="M60 44.3477H117.933C116.429 38.7663 114.142 33.5067 111.194 28.6954H60V44.3477Z" fill="#338AF3"/>
<path d="M22.6507 106.957H97.3491C102.825 102.595 107.521 97.298 111.193 91.3043H8.8064C12.4793 97.2978 17.1752 102.595 22.6507 106.957Z" fill="#0038A8"/>
<path d="M60 0C60 5.21742 60 13.0434 60 13.0434H97.3493C87.1001 4.88062 74.1209 0 60 0Z" fill="#0038A8"/>
<path d="M60 44.3477H117.933C116.429 38.7663 114.142 33.5067 111.194 28.6954H60V44.3477Z" fill="#0038A8"/>
<path d="M0 60C0 65.4157 0.721875 70.6615 2.06695 75.6523H117.933C119.278 70.6615 120 65.4157 120 60H0Z" fill="#0038A8"/>
<path d="M34.8506 41.3489L36.6894 44.0946C29.1337 49.5625 33.7465 52.7959 28.3921 54.5461C31.7223 51.2961 27.9519 50.7948 30.7578 44.0208" fill="#FCD116"/>
<path d="M34.8506 41.3489L36.6894 44.0946C29.1337 49.5625 33.7465 52.7959 28.3921 54.5461C31.7223 51.2961 27.9519 50.7948 30.7578 44.0208" stroke="#7B3F00" stroke-width="0.5" stroke-miterlimit="20" stroke-linecap="square"/>
<path d="M31.3785 38.8688L30.7372 42.1105C21.5282 40.6342 22.5036 46.1824 17.4798 43.6338C22.1328 43.6905 19.9262 40.6288 26.7002 37.8229" fill="#FCD116"/>
<path d="M31.3785 38.8688L30.7372 42.1105C21.5282 40.6342 22.5036 46.1824 17.4798 43.6338C22.1328 43.6905 19.9262 40.6288 26.7002 37.8229" stroke="#7B3F00" stroke-width="0.5" stroke-miterlimit="20" stroke-linecap="square"/>
<path d="M31.3786 38.8693L29.9278 38.6079L29.9427 38.6679C26.0719 39.6165 23.9702 41.2211 22.3239 42.4407C21.5004 43.0503 20.79 43.5688 20.0194 43.8496C19.5091 44.0388 18.9613 44.1048 18.4207 44.0423C22.4166 45.4617 22.152 40.7355 30.7376 42.1116L31.3786 38.8693Z" fill="#7B3F00" stroke="#7B3F00" stroke-width="0.5" stroke-miterlimit="20" stroke-linecap="square"/>
<path d="M29.8987 38.4897C22.0926 40.4004 21.3544 45.0049 17.4797 43.6338" stroke="#7B3F00" stroke-width="0.5" stroke-miterlimit="20"/>
<path d="M36.1083 35.9176L33.516 33.3253L21.8507 50.1752L38.7006 38.5099L36.1083 35.9176L21.8507 50.1752L36.1083 35.9176Z" fill="#FCD116"/>
<path d="M21.8507 50.1752L38.7006 38.5099L36.1083 35.9176L33.516 33.3253L21.8507 50.1752ZM36.1083 35.9176L21.8507 50.1752" stroke="#7B3F00" stroke-width="0.5" stroke-miterlimit="20"/>
<path d="M30.6771 34.6599L27.9314 36.4987C22.4635 28.943 19.2301 33.5559 17.4799 28.2014C20.7299 31.5317 21.2623 27.7674 28.0363 30.5733" fill="#FCD116"/>
<path d="M30.6771 34.6599L27.9314 36.4987C22.4635 28.943 19.2301 33.5559 17.4799 28.2014C20.7299 31.5317 21.2623 27.7674 28.0363 30.5733" stroke="#7B3F00" stroke-width="0.5" stroke-miterlimit="20" stroke-linecap="square"/>
<path d="M30.6768 34.6606L29.8357 33.4498L29.8039 33.5028C26.3961 31.4365 23.7752 31.085 21.7488 30.7833C20.7354 30.632 19.8664 30.4963 19.123 30.15C18.6284 29.9229 18.1944 29.5823 17.8563 29.1558C19.6781 32.985 22.833 29.456 27.9308 36.4999L30.6768 34.6606Z" fill="#7B3F00" stroke="#7B3F00" stroke-width="0.5" stroke-miterlimit="20" stroke-linecap="square"/>
<path d="M29.8989 33.3455C23.0281 29.1768 19.2502 31.9108 17.4799 28.2014" stroke="#7B3F00" stroke-width="0.5" stroke-miterlimit="20"/>
<path d="M36.1083 35.9176V32.2516L15.945 35.9176L36.1083 39.5837V35.9176H15.945H36.1083Z" fill="#FCD116"/>
<path d="M15.945 35.9176L36.1083 39.5837V35.9176V32.2516L15.945 35.9176ZM36.1083 35.9176H15.945" stroke="#7B3F00" stroke-width="0.5" stroke-miterlimit="20"/>
<path d="M36.1083 35.9176H15.945L36.1083 39.5837" fill="#7B3F00"/>
<path d="M33.1571 31.1881L29.9154 30.5468C31.3916 21.3377 25.8435 22.3131 28.3921 17.2894C28.3353 21.9423 31.5543 20.1079 34.3601 26.8818" fill="#FCD116"/>
<path d="M33.1571 31.1881L29.9154 30.5468C31.3916 21.3377 25.8435 22.3131 28.3921 17.2894C28.3353 21.9423 31.5543 20.1079 34.3601 26.8818" stroke="#7B3F00" stroke-width="0.5" stroke-miterlimit="20" stroke-linecap="square"/>
<path d="M33.1564 31.1882L33.4179 29.7374L33.3579 29.7523C32.4093 25.8815 30.8046 23.7797 29.5851 22.1335C28.9754 21.31 28.457 20.5995 28.1761 19.829C27.987 19.3187 27.921 18.7709 27.9835 18.2303C26.564 22.2262 31.2902 21.9616 29.9141 30.5472L33.1564 31.1882Z" fill="#7B3F00" stroke="#7B3F00" stroke-width="0.5" stroke-miterlimit="20" stroke-linecap="square"/>
<path d="M33.5363 29.7083C31.6256 21.9021 27.0211 21.164 28.3922 17.2893" stroke="#7B3F00" stroke-width="0.5" stroke-miterlimit="20"/>
<path d="M36.1081 35.9177L38.7004 33.3254L21.8506 21.6601L33.5159 38.51L36.1081 35.9177L21.8506 21.6601L36.1081 35.9177Z" fill="#FCD116"/>
<path d="M21.8506 21.6601L33.5159 38.51L36.1081 35.9177L38.7004 33.3254L21.8506 21.6601ZM36.1081 35.9177L21.8506 21.6601" stroke="#7B3F00" stroke-width="0.5" stroke-miterlimit="20"/>
<path d="M36.1083 35.9177L21.8507 21.6601L33.516 38.51" fill="#7B3F00"/>
<path d="M37.3659 30.4864L35.5272 27.7407C43.0828 22.2728 38.47 19.0394 43.8244 17.2892C40.4942 20.5392 44.2454 21.0752 41.4395 27.8491" fill="#FCD116"/>
<path d="M37.3659 30.4864L35.5272 27.7407C43.0828 22.2728 38.47 19.0394 43.8244 17.2892C40.4942 20.5392 44.2454 21.0752 41.4395 27.8491" stroke="#7B3F00" stroke-width="0.5" stroke-miterlimit="20" stroke-linecap="square"/>
<path d="M37.3654 30.4862L38.5762 29.6452L38.5232 29.6133C40.5895 26.2055 40.941 23.5847 41.2427 21.5583C41.394 20.5449 41.5297 19.6759 41.876 18.9325C42.1031 18.4379 42.4437 18.0039 42.8702 17.6658C39.041 19.4876 42.57 22.6424 35.5261 27.7403L37.3654 30.4862Z" fill="#7B3F00" stroke="#7B3F00" stroke-width="0.5" stroke-miterlimit="20" stroke-linecap="square"/>
<path d="M38.6805 29.7081C42.8492 22.8373 40.1152 19.0594 43.8246 17.2891" stroke="#7B3F00" stroke-width="0.5" stroke-miterlimit="20"/>
<path d="M36.1082 35.9177H39.7743L36.1082 15.7544L32.4422 35.9177H36.1082V15.7544V35.9177Z" fill="#FCD116"/>
<path d="M36.1082 15.7544L32.4422 35.9177H36.1082H39.7743L36.1082 15.7544ZM36.1082 35.9177V15.7544" stroke="#7B3F00" stroke-width="0.5" stroke-miterlimit="20"/>
<path d="M36.1083 35.9177V15.7544L32.4422 35.9177" fill="#7B3F00"/>
<path d="M40.8379 32.9666L41.4792 29.7249C50.6882 31.2012 49.7128 25.6531 54.7366 28.2016C50.0836 28.1449 52.1566 31.222 45.3826 34.0279" fill="#FCD116"/>
<path d="M40.8379 32.9666L41.4792 29.7249C50.6882 31.2012 49.7128 25.6531 54.7366 28.2016C50.0836 28.1449 52.1566 31.222 45.3826 34.0279" stroke="#7B3F00" stroke-width="0.5" stroke-miterlimit="20" stroke-linecap="square"/>
<path d="M40.8377 32.9661L42.2885 33.2276L42.2736 33.1676C46.1444 32.219 48.2461 30.6143 49.8924 29.3948C50.7159 28.7851 51.4263 28.2667 52.1969 27.9858C52.7072 27.7967 53.255 27.7307 53.7956 27.7932C49.7997 26.3737 50.0643 31.0999 41.4787 29.7238L40.8377 32.9661Z" fill="#7B3F00" stroke="#7B3F00" stroke-width="0.5" stroke-miterlimit="20" stroke-linecap="square"/>
<path d="M42.3175 33.3457C50.1236 31.435 50.8618 26.8305 54.7365 28.2016" stroke="#7B3F00" stroke-width="0.5" stroke-miterlimit="20"/>
<path d="M36.1081 35.9177L38.7004 38.51L50.3657 21.6601L33.5159 33.3254L36.1081 35.9177L50.3657 21.6601L36.1081 35.9177Z" fill="#FCD116"/>
<path d="M50.3657 21.6601L33.5159 33.3254L36.1081 35.9177L38.7004 38.51L50.3657 21.6601ZM36.1081 35.9177L50.3657 21.6601" stroke="#7B3F00" stroke-width="0.5" stroke-miterlimit="20"/>
<path d="M36.1082 35.9177L50.3658 21.6601L33.5159 33.3254" fill="#7B3F00"/>
<path d="M41.5395 37.1754L44.2852 35.3366C49.7531 42.8923 52.9865 38.2795 54.7368 43.6339C51.4867 40.3036 50.8767 44.0301 44.1027 41.2243" fill="#FCD116"/>
<path d="M41.5395 37.1754L44.2852 35.3366C49.7531 42.8923 52.9865 38.2795 54.7368 43.6339C51.4867 40.3036 50.8767 44.0301 44.1027 41.2243" stroke="#7B3F00" stroke-width="0.5" stroke-miterlimit="20" stroke-linecap="square"/>
<path d="M41.5397 37.1747L42.3807 38.3855L42.4125 38.3326C45.8204 40.3989 48.4412 40.7503 50.4676 41.052C51.481 41.2033 52.35 41.339 53.0934 41.6853C53.588 41.9124 54.022 42.2531 54.3601 42.6796C52.5383 38.8503 49.3835 42.3794 44.2856 35.3354L41.5397 37.1747Z" fill="#7B3F00" stroke="#7B3F00" stroke-width="0.5" stroke-miterlimit="20" stroke-linecap="square"/>
<path d="M42.3178 38.4898C49.1886 42.6585 52.9664 39.9245 54.7367 43.6339" stroke="#7B3F00" stroke-width="0.5" stroke-miterlimit="20"/>
<path d="M36.1083 35.9177V39.5837L56.2716 35.9177L36.1083 32.2516V35.9177H56.2716H36.1083Z" fill="#FCD116"/>
<path d="M56.2716 35.9177L36.1083 32.2516V35.9177V39.5837L56.2716 35.9177ZM36.1083 35.9177H56.2716" stroke="#7B3F00" stroke-width="0.5" stroke-miterlimit="20"/>
<path d="M36.1083 35.9177H56.2716L36.1083 32.2517" fill="#7B3F00"/>
<path d="M39.0593 40.6475L42.301 41.2888C40.8247 50.4978 46.3729 49.5224 43.8243 54.5462C43.8811 49.8932 40.8175 52.0482 38.0117 45.2742" fill="#FCD116"/>
<path d="M39.0593 40.6475L42.301 41.2888C40.8247 50.4978 46.3729 49.5224 43.8243 54.5462C43.8811 49.8932 40.8175 52.0482 38.0117 45.2742" stroke="#7B3F00" stroke-width="0.5" stroke-miterlimit="20" stroke-linecap="square"/>
<path d="M39.0599 40.6472L38.7984 42.0981L38.8584 42.0832C39.807 45.954 41.4117 48.0557 42.6312 49.7019C43.2409 50.5254 43.7593 51.2359 44.0402 52.0065C44.2293 52.5168 44.2953 53.0645 44.2328 53.6052C45.6523 49.6093 40.9261 49.8739 42.3022 41.2883L39.0599 40.6472Z" fill="#7B3F00" stroke="#7B3F00" stroke-width="0.5" stroke-miterlimit="20" stroke-linecap="square"/>
<path d="M38.6803 42.1272C40.591 49.9333 45.1955 50.6715 43.8244 54.5461" stroke="#7B3F00" stroke-width="0.5" stroke-miterlimit="20"/>
<path d="M36.1082 35.9177L33.5159 38.51L50.3658 50.1753L38.7005 33.3254L36.1082 35.9177L50.3658 50.1753L36.1082 35.9177Z" fill="#FCD116"/>
<path d="M50.3658 50.1753L38.7005 33.3254L36.1082 35.9177L33.5159 38.51L50.3658 50.1753ZM36.1082 35.9177L50.3658 50.1753" stroke="#7B3F00" stroke-width="0.5" stroke-miterlimit="20"/>
<path d="M36.1082 35.9177L50.3658 50.1753L38.7004 33.3254" fill="#7B3F00"/>
<path d="M34.8512 41.3491L33.6404 42.1901L33.6933 42.222C31.627 45.6298 31.2755 48.2507 30.9738 50.2771C30.8226 51.2905 30.6868 52.1595 30.3405 52.9029C30.1135 53.3975 29.7728 53.8315 29.3463 54.1696C33.1756 52.3478 29.6465 49.1929 36.6905 44.095L34.8512 41.3491Z" fill="#7B3F00" stroke="#7B3F00" stroke-width="0.5" stroke-miterlimit="20" stroke-linecap="square"/>
<path d="M33.5361 42.1272C29.3674 48.998 32.1013 52.7759 28.392 54.5462" stroke="#7B3F00" stroke-width="0.5" stroke-miterlimit="20"/>
<path d="M36.1082 35.9177H32.4421L36.1082 56.081L39.7742 35.9177H36.1082V56.081V35.9177Z" fill="#FCD116"/>
<path d="M36.1082 56.081L39.7742 35.9177H36.1082H32.4421L36.1082 56.081ZM36.1082 35.9177V56.081" stroke="#7B3F00" stroke-width="0.5" stroke-miterlimit="20"/>
<path d="M36.1082 35.9177V56.081L39.7742 35.9177" fill="#7B3F00"/>
<path d="M36.1083 35.9177L21.8507 50.1753L38.7006 38.51" fill="#7B3F00"/>
<path d="M36.1082 42.6386C39.8202 42.6386 42.8293 39.6295 42.8293 35.9176C42.8293 32.2056 39.8202 29.1965 36.1082 29.1965C32.3963 29.1965 29.3872 32.2056 29.3872 35.9176C29.3872 39.6295 32.3963 42.6386 36.1082 42.6386Z" fill="#FCD116" stroke="#7B3F00" stroke-width="0.5" stroke-miterlimit="20"/>
<path d="M41.0576 33.2291C40.6299 33.7179 40.3854 32.8625 38.8579 32.8625C37.3304 32.8625 37.086 33.779 36.8416 33.5957C36.5972 33.4124 38.1247 32.3126 38.6135 32.2515C39.1023 32.1904 40.5077 32.6792 41.0576 33.2291ZM39.2856 33.779C39.7133 34.1456 39.3467 34.94 38.919 34.94C38.4913 34.94 37.697 34.2067 38.0636 33.7179" fill="#7B3F00"/>
<path d="M37.2693 34.3289C37.3304 33.5957 37.9414 33.4735 38.919 33.4735C39.8966 33.4735 40.3243 34.2067 40.6909 34.39C40.2632 34.39 39.8966 33.779 38.919 33.779C37.9414 33.779 37.9414 33.779 37.2693 34.39M37.4526 34.5122C37.697 34.1456 38.0025 34.8788 38.6746 34.8788C39.3467 34.8788 39.7133 34.6955 40.141 34.39C40.5687 34.0845 39.53 35.1232 38.8579 35.1232C38.1858 35.1232 37.2693 34.7566 37.4526 34.5122Z" fill="#7B3F00"/>
<path d="M32.6867 33.7181C32.3812 33.8403 31.8924 34.4513 32.6867 34.879C32.0757 34.4513 32.5645 33.8403 32.6867 33.7181Z" fill="#7B3F00"/>
<path d="M39.5302 33.7181C39.6524 33.8403 40.1412 34.4513 39.5302 34.879C40.3245 34.4513 39.8357 33.8403 39.5302 33.7181Z" fill="#7B3F00"/>
<path d="M35.1307 36.3455C34.5808 36.4677 34.764 37.262 34.2752 37.3231C33.7864 37.3842 33.5421 37.9341 33.6032 37.873C33.9087 37.6286 34.5809 37.4452 35.0697 37.4452C35.5585 37.4452 35.6807 37.7508 36.1084 37.7508C36.5361 37.7508 36.6583 37.4452 37.1471 37.4452C37.6359 37.4452 38.308 37.6286 38.6135 37.873C38.6746 37.9341 38.4303 37.3842 37.9415 37.3231C37.4527 37.262 37.6359 36.4677 37.086 36.3455C37.086 36.5899 37.2692 36.5287 37.3303 36.8953C37.3303 37.2008 36.7805 37.2008 36.6583 36.8953C36.7805 37.3842 36.4139 37.3842 36.1084 37.3842C35.8029 37.3842 35.4363 37.3842 35.5585 36.8953C35.4363 37.2008 34.8865 37.2008 34.8865 36.8953C34.9476 36.5287 35.1307 36.5899 35.1307 36.3455Z" fill="#7B3F00"/>
<path d="M33.2366 38.4227C32.7478 38.7893 32.6257 38.9727 32.5646 39.4004C32.7111 39.1439 32.7831 39.0385 32.8944 38.8877C32.8649 38.875 32.8396 38.8634 32.8091 38.8505C32.8447 38.8547 32.8766 38.8603 32.9108 38.8651C32.9847 38.7653 33.0504 38.6788 33.2366 38.4227Z" fill="#7B3F00"/>
<path d="M32.9107 38.8651C32.909 38.8675 32.9047 38.8733 32.903 38.8757C32.9793 38.8934 33.0604 38.9017 33.1454 38.902C33.0707 38.8888 32.9922 38.8765 32.9107 38.8651Z" fill="#7B3F00"/>
<path d="M33.1454 38.9019C33.5264 38.9692 33.8256 39.0569 34.0998 39.1456C34.4418 39.1203 34.9135 39.0337 36.1084 39.0337C37.3032 39.0337 37.775 39.1203 38.117 39.1456C38.3912 39.0569 38.6903 38.9692 39.0714 38.9019C38.3981 38.9043 37.5007 38.4227 37.086 38.4227C36.5972 38.4227 36.475 38.5449 36.1084 38.5449C35.7418 38.5449 35.6195 38.4227 35.1307 38.4227C34.7161 38.4227 33.8187 38.9044 33.1454 38.9019Z" fill="#7B3F00"/>
<path d="M39.0714 38.902C39.1564 38.9017 39.2374 38.8934 39.3138 38.8757C39.3121 38.8733 39.3078 38.8675 39.3061 38.8651C39.2245 38.8765 39.1461 38.8888 39.0714 38.902Z" fill="#7B3F00"/>
<path d="M39.306 38.8651C39.3402 38.8603 39.3721 38.8549 39.4077 38.8505C39.3772 38.8634 39.3519 38.875 39.3224 38.8877C39.4337 39.0385 39.5057 39.1439 39.6522 39.4004C39.5911 38.9727 39.469 38.7893 38.9802 38.4227C39.1665 38.6788 39.2321 38.7653 39.306 38.8651Z" fill="#7B3F00"/>
<path d="M39.3224 38.8877C39.3218 38.8865 39.32 38.8841 39.3193 38.8835C38.6816 39.1292 38.4571 39.171 38.117 39.1458C37.5376 39.3332 37.0601 39.5227 36.1084 39.5227C35.1566 39.5227 34.6791 39.3332 34.0998 39.1458C33.7596 39.171 33.5351 39.1292 32.8974 38.8835C32.8967 38.8847 32.895 38.8871 32.8943 38.8877C34.8138 39.7139 34.6039 40.0114 36.1083 40.0114C37.6128 40.0114 37.403 39.7139 39.3224 38.8877Z" fill="#7B3F00"/>
<path d="M32.8974 38.8835C32.8987 38.8817 32.9017 38.8774 32.903 38.8757C32.8712 38.8683 32.8391 38.8616 32.8091 38.8506C32.844 38.8643 32.8649 38.8709 32.8974 38.8835Z" fill="#7B3F00"/>
<path d="M39.3194 38.8835C39.352 38.8709 39.3729 38.8643 39.4078 38.8506C39.3778 38.8615 39.3457 38.8683 39.3138 38.8757C39.3151 38.8775 39.3182 38.8818 39.3194 38.8835Z" fill="#7B3F00"/>
<path d="M31.1592 33.2291C31.5869 33.7179 31.8313 32.8625 33.3589 32.8625C34.8864 32.8625 35.1308 33.779 35.3752 33.5957C35.6196 33.4124 34.0921 32.3126 33.6033 32.2515C33.1145 32.1904 31.7091 32.6792 31.1592 33.2291ZM32.9312 33.779C32.5035 34.1456 32.8701 34.94 33.2978 34.94C33.7255 34.94 34.5198 34.2067 34.1532 33.7179" fill="#7B3F00"/>
<path d="M34.9475 34.3289C34.8864 33.5957 34.2754 33.4735 33.2978 33.4735C32.3202 33.4735 31.8925 34.2067 31.5259 34.39C31.9536 34.39 32.3202 33.779 33.2978 33.779C34.2754 33.779 34.2754 33.779 34.9475 34.39M34.7642 34.5122C34.5198 34.1456 34.2143 34.8788 33.5422 34.8788C32.8701 34.8788 32.5035 34.6955 32.0758 34.39C31.6481 34.0845 32.6868 35.1232 33.3589 35.1232C34.031 35.1232 34.9475 34.7566 34.7642 34.5122Z" fill="#7B3F00"/>
<path d="M36.1083 40.5613C35.8028 40.5613 35.0085 40.7446 36.1083 40.7446C37.2082 40.7446 36.4138 40.5613 36.1083 40.5613Z" fill="#7B3F00"/>
</g>
<defs>
<clipPath id="clip0_11_22446">
<rect width="120" height="120" fill="white"/>
</clipPath>
</defs>
</svg>
