<svg width="120" height="120" viewBox="0 0 120 120" fill="none" xmlns="http://www.w3.org/2000/svg">
<g clip-path="url(#clip0_11_22308)">
<path d="M60 120C93.1371 120 120 93.1371 120 60C120 26.8629 93.1371 0 60 0C26.8629 0 0 26.8629 0 60C0 93.1371 26.8629 120 60 120Z" fill="#F0F0F0"/>
<path d="M60 0C36.2124 0 15.6586 13.8434 5.95361 33.9131H114.046C104.341 13.8434 83.7874 0 60 0Z" fill="#0052B4"/>
<path d="M60 120C83.7874 120 104.341 106.157 114.046 86.0869H5.95361C15.6586 106.157 36.2124 120 60 120Z" fill="#0052B4"/>
<path d="M47.9507 62.6086L59.9999 41.7391L72.0491 62.6086H47.9507Z" fill="#FFDA44"/>
<path d="M75.6522 69.4994L59.9999 77.3257L44.3477 69.4994V59.0648H75.6522V69.4994Z" fill="#6DA544"/>
<path d="M74.757 42.6345L69.2232 48.1683C71.5836 50.5287 73.0438 53.7895 73.0438 57.3914C73.0438 64.5952 67.2038 70.4349 60.0003 70.4349C52.7968 70.4349 46.9569 64.5949 46.9569 57.3914C46.9569 53.7895 48.417 50.5287 50.7774 48.1683L45.2436 42.6345C41.4666 46.4107 39.1309 51.6281 39.1309 57.3914C39.1309 68.9175 48.4745 78.2609 60.0003 78.2609C71.5262 78.2609 80.8698 68.9173 80.8698 57.3914C80.8695 51.6281 78.5338 46.4107 74.757 42.6345Z" fill="#FFDA44"/>
</g>
<defs>
<clipPath id="clip0_11_22308">
<rect width="120" height="120" fill="white"/>
</clipPath>
</defs>
</svg>
