<svg width="120" height="120" viewBox="0 0 120 120" fill="none" xmlns="http://www.w3.org/2000/svg">
<g clip-path="url(#clip0_11_22299)">
<path d="M102.428 102.428C124.931 79.9255 125.819 43.9994 105.103 20.4309L59.9999 59.9997L20.4309 105.103C43.9994 125.819 79.9253 124.931 102.428 102.428Z" fill="#496E2D"/>
<path d="M17.5719 17.572C40.0744 -4.93053 76.0005 -5.81905 99.569 14.8971L59.9998 60.0006L14.8972 99.5691C-5.81916 76.0006 -4.93042 40.0745 17.5719 17.572Z" fill="#0052B4"/>
<path d="M99.5686 14.8969L14.8969 99.5689C15.7528 100.543 16.6415 101.498 17.5718 102.428C18.5018 103.358 19.4573 104.247 20.4314 105.103L105.103 20.4309C104.247 19.4568 103.358 18.5015 102.428 17.5713C101.498 16.6418 100.542 15.7528 99.5686 14.8969Z" fill="#FFDA44"/>
<path d="M25.2798 20.8678L26.5752 24.8538H30.7661L27.3756 27.3168L28.6705 31.3029L25.2798 28.8393L21.8891 31.3029L23.1845 27.3168L19.7938 24.8538H23.9849L25.2798 20.8678Z" fill="#F0F0F0"/>
<path d="M46.6874 20.8678L47.9828 24.8538H52.1734L48.783 27.3168L50.0781 31.3029L46.6874 28.8393L43.2967 31.3029L44.5921 27.3168L41.2014 24.8538H45.3923L46.6874 20.8678Z" fill="#F0F0F0"/>
<path d="M25.2798 41.7382L26.5752 45.7242H30.7661L27.3756 48.1874L28.6705 52.1735L25.2798 49.7099L21.8891 52.1735L23.1845 48.1874L19.7938 45.7242H23.9849L25.2798 41.7382Z" fill="#F0F0F0"/>
<path d="M46.6874 41.7382L47.9828 45.7242H52.1734L48.783 48.1874L50.0781 52.1735L46.6874 49.7099L43.2967 52.1735L44.5921 48.1874L41.2014 45.7242H45.3923L46.6874 41.7382Z" fill="#F0F0F0"/>
<path d="M35.9837 31.3029L37.2791 35.2889H41.4697L38.0792 37.7521L39.3744 41.7381L35.9837 39.2746L32.593 41.7381L33.8881 37.7521L30.4974 35.2889H34.6885L35.9837 31.3029Z" fill="#F0F0F0"/>
</g>
<defs>
<clipPath id="clip0_11_22299">
<rect width="120" height="120" fill="white"/>
</clipPath>
</defs>
</svg>
