<svg width="120" height="120" viewBox="0 0 120 120" fill="none" xmlns="http://www.w3.org/2000/svg">
<g clip-path="url(#clip0_11_22307)">
<path d="M60 120C93.1371 120 120 93.1371 120 60C120 26.8629 93.1371 0 60 0C26.8629 0 0 26.8629 0 60C0 93.1371 26.8629 120 60 120Z" fill="#FFDA44"/>
<path d="M36.5217 39.1305H116.268C107.79 16.2825 85.7977 0 60 0C43.4311 0 28.4327 6.71695 17.5755 17.5755L36.5217 39.1305Z" fill="#6DA544"/>
<path d="M36.5217 80.8694H116.268C107.79 103.717 85.7977 120 60 120C43.4311 120 28.4327 113.283 17.5755 102.424L36.5217 80.8694Z" fill="#6DA544"/>
<path d="M17.5734 17.5734C-5.85797 41.0048 -5.85797 78.9949 17.5734 102.427C27.2562 92.7438 36.5686 83.4314 60 60L17.5734 17.5734Z" fill="#D80027"/>
<path d="M76.1892 49.5652L78.7793 57.5368H87.161L80.3801 62.4633L82.9702 70.4349L76.1892 65.5081L69.4083 70.4349L71.9981 62.4633L65.2174 57.5368H73.5991L76.1892 49.5652Z" fill="black"/>
<path d="M102.276 49.5652L104.866 57.5368H113.248L106.467 62.4633L109.057 70.4349L102.276 65.5081L95.4952 70.4349L98.0852 62.4633L91.3043 57.5368H99.686L102.276 49.5652Z" fill="black"/>
</g>
<defs>
<clipPath id="clip0_11_22307">
<rect width="120" height="120" fill="white"/>
</clipPath>
</defs>
</svg>
